<svg xmlns="http://www.w3.org/2000/svg" viewBox="0 0 500 500"><g id="freepik--background-complete--inject-490"><rect x="33.23" y="159.02" width="60.35" height="112.01" transform="translate(126.81 430.06) rotate(180)" style="fill:#e0e0e0"></rect><rect x="92.84" y="189.26" width="102.15" height="81.78" transform="translate(287.83 460.3) rotate(180)" style="fill:#e0e0e0"></rect><path d="M93.54,271.1c.11,0,.2-24.65.2-55S93.65,161,93.54,161s-.2,24.65-.2,55.06S93.43,271.1,93.54,271.1Z" style="fill:#ebebeb"></path><rect x="33.23" y="234.2" width="161.76" height="36.83" transform="translate(228.23 505.24) rotate(180)" style="fill:#ebebeb"></rect><polygon points="95.48 154.1 63.44 137.6 31.55 154.1 95.48 154.1" style="fill:#ebebeb"></polygon><rect x="31.55" y="154.1" width="63.93" height="3.69" transform="translate(127.04 311.89) rotate(180)" style="fill:#e0e0e0"></rect><rect x="32.33" y="157.79" width="62.17" height="1.23" transform="translate(126.83 316.81) rotate(180)" style="fill:#e0e0e0"></rect><path d="M31.49,157.79c0,.11,14.33.2,32,.2s32-.09,32-.2-14.32-.2-32-.2S31.49,157.68,31.49,157.79Z" style="fill:#ebebeb"></path><path d="M32.28,159c0,.11,13.93.2,31.11.2s31.11-.09,31.11-.2-13.92-.2-31.11-.2S32.28,158.91,32.28,159Z" style="fill:#ebebeb"></path><rect x="68.09" y="172.17" width="12.97" height="22.29" transform="translate(149.14 366.64) rotate(180)" style="fill:#ebebeb"></rect><rect x="69.52" y="173.8" width="10.16" height="19.39" transform="translate(149.21 367) rotate(180)" style="fill:#fafafa"></rect><path d="M74.81,193.28c.11,0,.2-4.37.2-9.76s-.09-9.77-.2-9.77-.2,4.38-.2,9.77S74.7,193.28,74.81,193.28Z" style="fill:#e0e0e0"></path><path d="M69.52,179.65a32.64,32.64,0,0,0,5.09.2,32.56,32.56,0,0,0,5.08-.2,32.56,32.56,0,0,0-5.08-.2A32.64,32.64,0,0,0,69.52,179.65Z" style="fill:#e0e0e0"></path><path d="M69.52,186.5a32.64,32.64,0,0,0,5.09.2,32.56,32.56,0,0,0,5.08-.2,32.56,32.56,0,0,0-5.08-.2A32.64,32.64,0,0,0,69.52,186.5Z" style="fill:#e0e0e0"></path><rect x="45.61" y="172.17" width="12.97" height="22.29" transform="translate(104.18 366.64) rotate(180)" style="fill:#ebebeb"></rect><rect x="47.04" y="173.8" width="10.16" height="19.39" transform="translate(104.25 367) rotate(180)" style="fill:#fafafa"></rect><path d="M52.33,193.28c.11,0,.2-4.37.2-9.76s-.09-9.77-.2-9.77-.2,4.38-.2,9.77S52.22,193.28,52.33,193.28Z" style="fill:#e0e0e0"></path><path d="M47,179.65a32.64,32.64,0,0,0,5.09.2,32.56,32.56,0,0,0,5.08-.2,32.56,32.56,0,0,0-5.08-.2A32.64,32.64,0,0,0,47,179.65Z" style="fill:#e0e0e0"></path><path d="M47,186.5a32.64,32.64,0,0,0,5.09.2,32.56,32.56,0,0,0,5.08-.2,32.56,32.56,0,0,0-5.08-.2A32.64,32.64,0,0,0,47,186.5Z" style="fill:#e0e0e0"></path><rect x="68.09" y="200.34" width="12.97" height="22.29" transform="translate(149.14 422.96) rotate(180)" style="fill:#ebebeb"></rect><rect x="69.52" y="201.96" width="10.16" height="19.39" transform="translate(149.21 423.32) rotate(180)" style="fill:#fafafa"></rect><path d="M74.81,221.44c.11,0,.2-4.37.2-9.76s-.09-9.76-.2-9.76-.2,4.37-.2,9.76S74.7,221.44,74.81,221.44Z" style="fill:#e0e0e0"></path><path d="M69.52,207.81a32.64,32.64,0,0,0,5.09.2,32.56,32.56,0,0,0,5.08-.2,32.56,32.56,0,0,0-5.08-.2A32.64,32.64,0,0,0,69.52,207.81Z" style="fill:#e0e0e0"></path><path d="M69.52,214.66a32.64,32.64,0,0,0,5.09.2,32.56,32.56,0,0,0,5.08-.2,32.56,32.56,0,0,0-5.08-.2A32.64,32.64,0,0,0,69.52,214.66Z" style="fill:#e0e0e0"></path><rect x="45.61" y="200.34" width="12.97" height="22.29" transform="translate(104.18 422.96) rotate(180)" style="fill:#ebebeb"></rect><rect x="47.04" y="201.96" width="10.16" height="19.39" transform="translate(104.25 423.32) rotate(180)" style="fill:#fafafa"></rect><path d="M52.33,221.44c.11,0,.2-4.37.2-9.76s-.09-9.76-.2-9.76-.2,4.37-.2,9.76S52.22,221.44,52.33,221.44Z" style="fill:#e0e0e0"></path><path d="M47,207.81a32.64,32.64,0,0,0,5.09.2,32.56,32.56,0,0,0,5.08-.2,32.56,32.56,0,0,0-5.08-.2A32.64,32.64,0,0,0,47,207.81Z" style="fill:#e0e0e0"></path><path d="M47,214.66a32.64,32.64,0,0,0,5.09.2,32.56,32.56,0,0,0,5.08-.2,32.56,32.56,0,0,0-5.08-.2A32.64,32.64,0,0,0,47,214.66Z" style="fill:#e0e0e0"></path><rect x="169.66" y="199.34" width="12.97" height="22.29" transform="translate(352.28 420.96) rotate(180)" style="fill:#f5f5f5"></rect><rect x="171.1" y="200.97" width="10.16" height="19.39" transform="translate(352.36 421.32) rotate(180)" style="fill:#fafafa"></rect><path d="M176.38,220.45c.11,0,.2-4.38.2-9.77s-.09-9.76-.2-9.76-.2,4.37-.2,9.76S176.27,220.45,176.38,220.45Z" style="fill:#e0e0e0"></path><path d="M171.1,206.81a30.34,30.34,0,0,0,5.08.21,30.44,30.44,0,0,0,5.08-.21,32.56,32.56,0,0,0-5.08-.2A32.45,32.45,0,0,0,171.1,206.81Z" style="fill:#e0e0e0"></path><path d="M171.1,213.66a32.45,32.45,0,0,0,5.08.2,32.56,32.56,0,0,0,5.08-.2,32.56,32.56,0,0,0-5.08-.2A32.45,32.45,0,0,0,171.1,213.66Z" style="fill:#e0e0e0"></path><rect x="146.16" y="199.34" width="12.97" height="22.29" transform="translate(305.28 420.96) rotate(180)" style="fill:#f5f5f5"></rect><rect x="147.59" y="200.97" width="10.16" height="19.39" transform="translate(305.35 421.32) rotate(180)" style="fill:#fafafa"></rect><path d="M152.88,220.45c.11,0,.2-4.38.2-9.77s-.09-9.76-.2-9.76-.2,4.37-.2,9.76S152.77,220.45,152.88,220.45Z" style="fill:#e0e0e0"></path><path d="M147.59,206.81a30.44,30.44,0,0,0,5.08.21,30.51,30.51,0,0,0,5.09-.21,32.64,32.64,0,0,0-5.09-.2A32.56,32.56,0,0,0,147.59,206.81Z" style="fill:#e0e0e0"></path><path d="M147.59,213.66a32.56,32.56,0,0,0,5.08.2,32.64,32.64,0,0,0,5.09-.2,32.64,32.64,0,0,0-5.09-.2A32.56,32.56,0,0,0,147.59,213.66Z" style="fill:#e0e0e0"></path><rect x="122.65" y="199.34" width="12.97" height="22.29" transform="translate(258.27 420.96) rotate(180)" style="fill:#f5f5f5"></rect><rect x="124.09" y="200.97" width="10.16" height="19.39" transform="translate(258.34 421.32) rotate(180)" style="fill:#fafafa"></rect><path d="M129.37,220.45c.12,0,.21-4.38.21-9.77s-.09-9.76-.21-9.76-.2,4.37-.2,9.76S129.26,220.45,129.37,220.45Z" style="fill:#e0e0e0"></path><path d="M124.09,206.81a30.34,30.34,0,0,0,5.08.21,30.34,30.34,0,0,0,5.08-.21,32.45,32.45,0,0,0-5.08-.2A32.45,32.45,0,0,0,124.09,206.81Z" style="fill:#e0e0e0"></path><path d="M124.09,213.66a32.45,32.45,0,0,0,5.08.2,32.45,32.45,0,0,0,5.08-.2,32.45,32.45,0,0,0-5.08-.2A32.45,32.45,0,0,0,124.09,213.66Z" style="fill:#e0e0e0"></path><rect x="99.15" y="199.34" width="12.97" height="22.29" transform="translate(211.26 420.96) rotate(180)" style="fill:#f5f5f5"></rect><rect x="100.58" y="200.97" width="10.16" height="19.39" transform="translate(211.33 421.32) rotate(180)" style="fill:#fafafa"></rect><path d="M105.87,220.45c.11,0,.2-4.38.2-9.77s-.09-9.76-.2-9.76-.2,4.37-.2,9.76S105.76,220.45,105.87,220.45Z" style="fill:#e0e0e0"></path><path d="M100.58,206.81a30.51,30.51,0,0,0,5.09.21,30.44,30.44,0,0,0,5.08-.21,32.56,32.56,0,0,0-5.08-.2A32.64,32.64,0,0,0,100.58,206.81Z" style="fill:#e0e0e0"></path><path d="M100.58,213.66a32.64,32.64,0,0,0,5.09.2,32.56,32.56,0,0,0,5.08-.2,32.56,32.56,0,0,0-5.08-.2A32.64,32.64,0,0,0,100.58,213.66Z" style="fill:#e0e0e0"></path><rect x="31.38" y="228.03" width="163.89" height="3.77" transform="translate(226.65 459.82) rotate(180)" style="fill:#e0e0e0"></rect><rect x="32.36" y="231.67" width="162.91" height="2.53" transform="translate(227.63 465.87) rotate(180)" style="fill:#e0e0e0"></rect><path d="M195.27,232c0-.11-36.53-.2-81.57-.2s-81.59.09-81.59.2,36.52.2,81.59.2S195.27,232.09,195.27,232Z" style="fill:#ebebeb"></path><path d="M195.27,234.2c0-.11-36.53-.2-81.57-.2s-81.59.09-81.59.2,36.52.2,81.59.2S195.27,234.31,195.27,234.2Z" style="fill:#ebebeb"></path><path d="M195.27,228c0-.12-36.53-.21-81.57-.21s-81.59.09-81.59.21,36.52.2,81.59.2S195.27,228.14,195.27,228Z" style="fill:#ebebeb"></path><path d="M162.85,238.1h13.63a0,0,0,0,1,0,0v22.72a6.32,6.32,0,0,1-6.32,6.32h-1a6.32,6.32,0,0,1-6.32-6.32V238.1A0,0,0,0,1,162.85,238.1Z" transform="translate(339.32 505.24) rotate(180)" style="fill:#e0e0e0"></path><path d="M164.78,240.2h9.77a0,0,0,0,1,0,0v20.32A4.53,4.53,0,0,1,170,265h-.71a4.53,4.53,0,0,1-4.53-4.53V240.2A0,0,0,0,1,164.78,240.2Z" transform="translate(339.32 505.24) rotate(180)" style="fill:#fafafa"></path><path d="M169.66,265c.11,0,.2-5.56.2-12.42s-.09-12.42-.2-12.42-.2,5.56-.2,12.42S169.55,265,169.66,265Z" style="fill:#e0e0e0"></path><path d="M164.84,247.94a29.8,29.8,0,0,0,4.86.2,29.88,29.88,0,0,0,4.87-.2,27.93,27.93,0,0,0-4.87-.21A27.86,27.86,0,0,0,164.84,247.94Z" style="fill:#e0e0e0"></path><path d="M164.84,256.07a29.8,29.8,0,0,0,4.86.2,29.88,29.88,0,0,0,4.87-.2,29.88,29.88,0,0,0-4.87-.2A29.8,29.8,0,0,0,164.84,256.07Z" style="fill:#e0e0e0"></path><path d="M136.35,238.1H150a0,0,0,0,1,0,0v22.72a6.32,6.32,0,0,1-6.32,6.32h-1a6.32,6.32,0,0,1-6.32-6.32V238.1A0,0,0,0,1,136.35,238.1Z" transform="translate(286.33 505.24) rotate(180)" style="fill:#e0e0e0"></path><path d="M138.28,240.2H148a0,0,0,0,1,0,0v20.32a4.53,4.53,0,0,1-4.53,4.53h-.71a4.53,4.53,0,0,1-4.53-4.53V240.2A0,0,0,0,1,138.28,240.2Z" transform="translate(286.33 505.24) rotate(180)" style="fill:#fafafa"></path><path d="M143.16,265c.11,0,.2-5.56.2-12.42s-.09-12.42-.2-12.42-.2,5.56-.2,12.42S143.05,265,143.16,265Z" style="fill:#e0e0e0"></path><path d="M138.34,247.94a29.88,29.88,0,0,0,4.87.2,29.7,29.7,0,0,0,4.86-.2,27.77,27.77,0,0,0-4.86-.21A27.93,27.93,0,0,0,138.34,247.94Z" style="fill:#e0e0e0"></path><path d="M138.34,256.07a29.88,29.88,0,0,0,4.87.2,29.7,29.7,0,0,0,4.86-.2,29.7,29.7,0,0,0-4.86-.2A29.88,29.88,0,0,0,138.34,256.07Z" style="fill:#e0e0e0"></path><path d="M109.86,238.1h13.63a0,0,0,0,1,0,0v22.72a6.32,6.32,0,0,1-6.32,6.32h-1a6.32,6.32,0,0,1-6.32-6.32V238.1A0,0,0,0,1,109.86,238.1Z" transform="translate(233.34 505.24) rotate(180)" style="fill:#e0e0e0"></path><path d="M111.79,240.2h9.77a0,0,0,0,1,0,0v20.32A4.53,4.53,0,0,1,117,265h-.71a4.53,4.53,0,0,1-4.53-4.53V240.2A0,0,0,0,1,111.79,240.2Z" transform="translate(233.34 505.24) rotate(180)" style="fill:#fafafa"></path><path d="M116.67,265c.11,0,.2-5.56.2-12.42s-.09-12.42-.2-12.42-.2,5.56-.2,12.42S116.56,265,116.67,265Z" style="fill:#e0e0e0"></path><path d="M111.85,247.94a29.8,29.8,0,0,0,4.86.2,29.88,29.88,0,0,0,4.87-.2,27.93,27.93,0,0,0-4.87-.21A27.86,27.86,0,0,0,111.85,247.94Z" style="fill:#e0e0e0"></path><path d="M111.85,256.07a29.8,29.8,0,0,0,4.86.2,29.88,29.88,0,0,0,4.87-.2,29.88,29.88,0,0,0-4.87-.2A29.8,29.8,0,0,0,111.85,256.07Z" style="fill:#e0e0e0"></path><path d="M83.36,238.1H97a0,0,0,0,1,0,0v22.72a6.32,6.32,0,0,1-6.32,6.32h-1a6.32,6.32,0,0,1-6.32-6.32V238.1A0,0,0,0,1,83.36,238.1Z" transform="translate(180.35 505.24) rotate(180)" style="fill:#e0e0e0"></path><path d="M85.29,240.2h9.77a0,0,0,0,1,0,0v20.32A4.53,4.53,0,0,1,90.53,265h-.71a4.53,4.53,0,0,1-4.53-4.53V240.2A0,0,0,0,1,85.29,240.2Z" transform="translate(180.35 505.24) rotate(180)" style="fill:#fafafa"></path><path d="M90.17,265c.12,0,.21-5.56.21-12.42s-.09-12.42-.21-12.42-.2,5.56-.2,12.42S90.06,265,90.17,265Z" style="fill:#e0e0e0"></path><path d="M85.35,247.94a29.88,29.88,0,0,0,4.87.2,29.7,29.7,0,0,0,4.86-.2,27.77,27.77,0,0,0-4.86-.21A27.93,27.93,0,0,0,85.35,247.94Z" style="fill:#e0e0e0"></path><path d="M85.35,256.07a29.88,29.88,0,0,0,4.87.2,29.7,29.7,0,0,0,4.86-.2,29.7,29.7,0,0,0-4.86-.2A29.88,29.88,0,0,0,85.35,256.07Z" style="fill:#e0e0e0"></path><path d="M56.87,238.1H70.49a0,0,0,0,1,0,0v22.72a6.32,6.32,0,0,1-6.32,6.32h-1a6.32,6.32,0,0,1-6.32-6.32V238.1A0,0,0,0,1,56.87,238.1Z" transform="translate(127.36 505.24) rotate(180)" style="fill:#e0e0e0"></path><path d="M58.8,240.2h9.77a0,0,0,0,1,0,0v20.32A4.53,4.53,0,0,1,64,265h-.71a4.53,4.53,0,0,1-4.53-4.53V240.2A0,0,0,0,1,58.8,240.2Z" transform="translate(127.36 505.24) rotate(180)" style="fill:#fafafa"></path><path d="M63.68,265c.11,0,.2-5.56.2-12.42s-.09-12.42-.2-12.42-.2,5.56-.2,12.42S63.57,265,63.68,265Z" style="fill:#e0e0e0"></path><path d="M58.86,247.94a29.8,29.8,0,0,0,4.86.2,29.88,29.88,0,0,0,4.87-.2,27.93,27.93,0,0,0-4.87-.21A27.86,27.86,0,0,0,58.86,247.94Z" style="fill:#e0e0e0"></path><path d="M58.86,256.07a29.8,29.8,0,0,0,4.86.2,29.88,29.88,0,0,0,4.87-.2,29.88,29.88,0,0,0-4.87-.2A29.8,29.8,0,0,0,58.86,256.07Z" style="fill:#e0e0e0"></path><rect x="92.03" y="184.34" width="104.87" height="3.69" transform="translate(288.93 372.37) rotate(180)" style="fill:#e0e0e0"></rect><rect x="93.3" y="188.03" width="101.99" height="1.23" transform="translate(288.6 377.29) rotate(180)" style="fill:#e0e0e0"></rect><path d="M92,184.34h.55l1.59,0,6.1,0,22.41.06,74.22.08-.2-.2V188h0l.2-.2c-50.71,0-93.29.06-104.87.15l0,.05c0-1.25,0-2.17,0-2.78s0-.91,0-.91,0,.28,0,.88L92,188v.05h0c11.58.08,54.16.15,104.87.15h.2V188h0v-3.88h-.2l-74.37.08-22.36.06-6,0-1.57,0Z" style="fill:#ebebeb"></path><path d="M195.29,188s0,.1,0,.3,0,.54,0,.93l0,0c-5-.09-26-.16-51-.16s-46,.07-51,.16l0,0c0-.39,0-.7,0-.92a1.19,1.19,0,0,0,0-.31s0,.1,0,.3-.05.53-.08.93v0h0c5,.09,26,.16,51,.16s46-.07,51-.16h.05v0c0-.39,0-.7,0-.93A1.16,1.16,0,0,0,195.29,188Z" style="fill:#ebebeb"></path><polygon points="92.03 184.34 196.9 184.34 194.86 174.99 93.73 174.99 92.03 184.34" style="fill:#ebebeb"></polygon><rect x="411.11" y="159.02" width="60.35" height="112.01" style="fill:#e0e0e0"></rect><rect x="309.7" y="189.26" width="102.15" height="81.78" style="fill:#e0e0e0"></rect><path d="M411.15,271.1c-.11,0-.2-24.65-.2-55s.09-55.06.2-55.06.2,24.65.2,55.06S411.26,271.1,411.15,271.1Z" style="fill:#ebebeb"></path><rect x="309.7" y="234.2" width="161.76" height="36.83" style="fill:#ebebeb"></rect><path d="M209.69,207.34a1.3,1.3,0,0,1,0-.23c0-.18,0-.39,0-.66,0-.59,0-1.42,0-2.47,0-2.16,0-5.24-.07-9s-.05-8.3-.08-13.3a5.84,5.84,0,0,0-4.62-5.41,9,9,0,0,0-2-.13,6.51,6.51,0,0,0-2,.24,6,6,0,0,0-3.26,2.45,5.79,5.79,0,0,0-.78,1.85,8.32,8.32,0,0,0-.15,2v4c0,2.64,0,5.2,0,7.64,0,4.86,0,9.27,0,13l-.15-.15,9.65.08,2.66,0h.7l.25,0h-.22l-.67,0-2.63,0-9.74.08h-.15v-.14c0-3.75,0-8.16,0-13,0-2.44,0-5,0-7.64v-4a6.7,6.7,0,0,1,1-4.06A6.35,6.35,0,0,1,200.7,176a6.58,6.58,0,0,1,2.14-.26,9.89,9.89,0,0,1,2.1.14,6.39,6.39,0,0,1,3.5,2.12,6.32,6.32,0,0,1,1.42,3.65c0,5.08,0,9.63,0,13.45s-.06,6.85-.07,9q0,1.54,0,2.43l0,.62A1.66,1.66,0,0,1,209.69,207.34Z" style="fill:#455a64"></path><rect x="178.28" y="158.99" width="130.73" height="90.93" style="fill:#ebebeb"></rect><rect x="174.71" y="160.04" width="138.46" height="4.15" style="fill:#e0e0e0"></rect><rect x="175.24" y="155.88" width="137.62" height="1.4" style="fill:#e0e0e0"></rect><rect x="174.71" y="152.64" width="139.51" height="3.25" style="fill:#e0e0e0"></rect><rect x="176.37" y="155.88" width="135" height="4.18" style="fill:#e0e0e0"></rect><polygon points="174.82 152.64 314.3 152.64 243.99 119.59 174.82 152.64" style="fill:#e0e0e0"></polygon><rect x="176.37" y="164.19" width="134.85" height="2.12" style="fill:#e0e0e0"></rect><rect x="178.28" y="166.31" width="8.15" height="83.61" style="fill:#e0e0e0"></rect><path d="M186.43,249.92s0-.15,0-.44,0-.71,0-1.26c0-1.11,0-2.73,0-4.82,0-4.19,0-10.24-.06-17.76,0-15,0-35.9-.09-59.33l.2.2h-8.15l.2-.2c0,37.28-.1,69.35-.12,83.61l-.08-.08,6,0,1.57,0,.54,0-.51,0h-1.56l-6.08.05h-.08v-.08c0-14.26-.07-46.33-.12-83.61v-.2h8.55v.2c0,23.49-.06,44.41-.08,59.47,0,7.5-.05,13.54-.06,17.72,0,2.07,0,3.67,0,4.78,0,.53,0,.94,0,1.23S186.43,249.92,186.43,249.92Z" style="fill:#ebebeb"></path><rect x="202.96" y="166.31" width="8.15" height="83.61" style="fill:#e0e0e0"></rect><path d="M211.12,249.92s0-.15,0-.44,0-.71,0-1.26c0-1.11,0-2.73,0-4.82,0-4.19,0-10.24-.06-17.76,0-15-.05-35.9-.09-59.33l.21.2H203l.2-.2c0,37.28-.1,69.35-.12,83.61l-.08-.08,6,0,1.57,0,.55,0-.52,0h-1.55L203,250h-.08v-.08c0-14.26-.07-46.33-.12-83.61v-.2h8.56v.2c0,23.49-.07,44.41-.09,59.47,0,7.5,0,13.54-.06,17.72,0,2.07,0,3.67,0,4.78,0,.53,0,.94,0,1.23S211.12,249.92,211.12,249.92Z" style="fill:#ebebeb"></path><rect x="279.38" y="166.31" width="8.15" height="83.61" style="fill:#e0e0e0"></rect><path d="M287.53,249.92s0-.15,0-.44,0-.71,0-1.26c0-1.11,0-2.73,0-4.82,0-4.19,0-10.24-.06-17.76,0-15-.05-35.9-.08-59.33l.2.2h-8.15l.2-.2c-.06,37.28-.1,69.35-.12,83.61l-.08-.08,6,0,1.57,0,.55,0-.52,0h-1.55l-6.08.05h-.09v-.08c0-14.26-.06-46.33-.12-83.61v-.2h8.56v.2c0,23.49-.06,44.41-.09,59.47,0,7.5,0,13.54-.06,17.72,0,2.07,0,3.67,0,4.78,0,.53,0,.94,0,1.23S287.53,249.92,287.53,249.92Z" style="fill:#ebebeb"></path><rect x="301.69" y="166.31" width="8.15" height="83.61" style="fill:#e0e0e0"></rect><path d="M309.85,249.92s0-.15,0-.44,0-.71,0-1.26c0-1.11,0-2.73,0-4.82,0-4.19,0-10.24-.06-17.76,0-15-.05-35.9-.09-59.33l.2.2h-8.15l.2-.2c-.05,37.28-.1,69.35-.12,83.61l-.08-.08,6,0,1.57,0,.55,0-.52,0h-1.55l-6.09.05h-.08v-.08c0-14.26-.07-46.33-.12-83.61v-.2h8.56v.2c0,23.49-.07,44.41-.09,59.47,0,7.5,0,13.54-.06,17.72,0,2.07,0,3.67,0,4.78,0,.53,0,.94,0,1.23S309.85,249.92,309.85,249.92Z" style="fill:#ebebeb"></path><path d="M229.9,210.25H216.65V184.88a6.06,6.06,0,0,1,6.06-6.06h1.14a6.06,6.06,0,0,1,6.05,6.06Z" style="fill:#fafafa"></path><path d="M229.9,210.25a2.07,2.07,0,0,1,0-.23c0-.17,0-.38,0-.65,0-.6,0-1.42,0-2.48,0-2.16,0-5.23-.07-9s0-8.31-.07-13.31a5.92,5.92,0,0,0-1.34-3.43,6,6,0,0,0-3.28-2,9.58,9.58,0,0,0-2-.13,6.58,6.58,0,0,0-2,.25,5.92,5.92,0,0,0-3.25,2.45,5.61,5.61,0,0,0-.78,1.85,8.28,8.28,0,0,0-.15,2c0,1.36,0,2.71,0,4,0,2.64,0,5.19,0,7.63,0,4.87,0,9.28,0,13l-.14-.14,9.65.07,2.66,0,.7,0h.24s-.06,0-.21,0H229l-2.62,0-9.74.08h-.15v-.15c0-3.74,0-8.15,0-13,0-2.44,0-5,0-7.63v-4a6.72,6.72,0,0,1,1-4.07,6.36,6.36,0,0,1,3.48-2.62,7.09,7.09,0,0,1,2.14-.26,10,10,0,0,1,2.1.15,6.33,6.33,0,0,1,3.49,2.12,6.2,6.2,0,0,1,1.42,3.65c0,5.08,0,9.62,0,13.44s-.06,6.86-.08,9q0,1.56,0,2.43c0,.26,0,.47,0,.63S229.91,210.26,229.9,210.25Z" style="fill:#e0e0e0"></path><path d="M223.28,210c-.12,0-.21-6.94-.21-15.49s.09-15.49.21-15.49.2,6.93.2,15.49S223.39,210,223.28,210Z" style="fill:#e0e0e0"></path><path d="M229.9,186a55,55,0,0,1-6.62.2,55.12,55.12,0,0,1-6.63-.2,55.12,55.12,0,0,1,6.63-.2A55,55,0,0,1,229.9,186Z" style="fill:#e0e0e0"></path><path d="M229.9,193.76a55,55,0,0,1-6.62.2,55.12,55.12,0,0,1-6.63-.2,51.52,51.52,0,0,1,6.63-.21A51.42,51.42,0,0,1,229.9,193.76Z" style="fill:#e0e0e0"></path><path d="M229.9,201.54a55,55,0,0,1-6.62.2,55.12,55.12,0,0,1-6.63-.2,55.12,55.12,0,0,1,6.63-.2A55,55,0,0,1,229.9,201.54Z" style="fill:#e0e0e0"></path><path d="M252.52,210.25H239.27V184.88a6.06,6.06,0,0,1,6.06-6.06h1.13a6.06,6.06,0,0,1,6.06,6.06Z" style="fill:#fafafa"></path><path d="M252.52,210.25a2.07,2.07,0,0,1,0-.23c0-.17,0-.38,0-.65,0-.6,0-1.42,0-2.48,0-2.16,0-5.23-.07-9s0-8.31-.07-13.31a5.92,5.92,0,0,0-1.34-3.43,6,6,0,0,0-3.28-2,9.58,9.58,0,0,0-2-.13,6.58,6.58,0,0,0-2,.25,5.92,5.92,0,0,0-3.25,2.45,5.4,5.4,0,0,0-.78,1.85,8.28,8.28,0,0,0-.15,2c0,1.36,0,2.71,0,4,0,2.64,0,5.19,0,7.63,0,4.87,0,9.28,0,13l-.14-.14,9.65.07,2.66,0,.7,0h.24s-.07,0-.22,0h-.67l-2.62,0-9.74.08h-.15v-.15c0-3.74,0-8.15,0-13,0-2.44,0-5,0-7.63v-4a6.65,6.65,0,0,1,1-4.07,6.36,6.36,0,0,1,3.48-2.62,7.09,7.09,0,0,1,2.14-.26,10,10,0,0,1,2.1.15,6.33,6.33,0,0,1,3.49,2.12,6.2,6.2,0,0,1,1.42,3.65c0,5.08,0,9.62,0,13.44s-.05,6.86-.07,9l0,2.43c0,.26,0,.47,0,.63S252.53,210.26,252.52,210.25Z" style="fill:#e0e0e0"></path><path d="M245.9,210c-.12,0-.21-6.94-.21-15.49s.09-15.49.21-15.49.2,6.93.2,15.49S246,210,245.9,210Z" style="fill:#e0e0e0"></path><path d="M252.52,186a55,55,0,0,1-6.62.2,55.12,55.12,0,0,1-6.63-.2,55.12,55.12,0,0,1,6.63-.2A55,55,0,0,1,252.52,186Z" style="fill:#e0e0e0"></path><path d="M252.52,193.76a55,55,0,0,1-6.62.2,55.12,55.12,0,0,1-6.63-.2,51.52,51.52,0,0,1,6.63-.21A51.42,51.42,0,0,1,252.52,193.76Z" style="fill:#e0e0e0"></path><path d="M252.52,201.54a55,55,0,0,1-6.62.2,55.12,55.12,0,0,1-6.63-.2,55.12,55.12,0,0,1,6.63-.2A55,55,0,0,1,252.52,201.54Z" style="fill:#e0e0e0"></path><path d="M275.14,210.25H261.89V184.88a6.06,6.06,0,0,1,6.06-6.06h1.13a6.06,6.06,0,0,1,6.06,6.06Z" style="fill:#fafafa"></path><path d="M275.14,210.25a2.07,2.07,0,0,1,0-.23c0-.17,0-.38,0-.65,0-.6,0-1.42,0-2.48,0-2.16,0-5.23-.07-9s0-8.31-.07-13.31a5.92,5.92,0,0,0-1.34-3.43,6,6,0,0,0-3.28-2,9.58,9.58,0,0,0-2-.13,6.58,6.58,0,0,0-2,.25,5.92,5.92,0,0,0-3.25,2.45,5.4,5.4,0,0,0-.78,1.85,8.28,8.28,0,0,0-.15,2c0,1.36,0,2.71,0,4,0,2.64,0,5.19,0,7.63,0,4.87,0,9.28,0,13l-.14-.14,9.65.07,2.65,0,.7,0h.25s-.07,0-.22,0h-.67l-2.62,0-9.74.08h-.15v-.15c0-3.74,0-8.15,0-13,0-2.44,0-5,0-7.63v-4a6.65,6.65,0,0,1,1-4.07,6.36,6.36,0,0,1,3.48-2.62,7.09,7.09,0,0,1,2.14-.26,10,10,0,0,1,2.1.15,6.33,6.33,0,0,1,3.49,2.12,6.2,6.2,0,0,1,1.42,3.65c0,5.08,0,9.62,0,13.44s0,6.86-.07,9q0,1.56,0,2.43c0,.26,0,.47,0,.63S275.15,210.26,275.14,210.25Z" style="fill:#e0e0e0"></path><path d="M268.51,210c-.11,0-.2-6.94-.2-15.49s.09-15.49.2-15.49.21,6.93.21,15.49S268.63,210,268.51,210Z" style="fill:#e0e0e0"></path><path d="M275.14,186a55,55,0,0,1-6.62.2,55.12,55.12,0,0,1-6.63-.2,55.12,55.12,0,0,1,6.63-.2A55,55,0,0,1,275.14,186Z" style="fill:#e0e0e0"></path><path d="M275.14,193.76a55,55,0,0,1-6.62.2,55.12,55.12,0,0,1-6.63-.2,51.52,51.52,0,0,1,6.63-.21A51.42,51.42,0,0,1,275.14,193.76Z" style="fill:#e0e0e0"></path><path d="M275.14,201.54a55,55,0,0,1-6.62.2,55.12,55.12,0,0,1-6.63-.2,55.12,55.12,0,0,1,6.63-.2A55,55,0,0,1,275.14,201.54Z" style="fill:#e0e0e0"></path><rect x="219.52" y="227.9" width="10.38" height="20.59" style="fill:#e0e0e0"></rect><rect x="239.85" y="227.9" width="10.38" height="20.59" style="fill:#e0e0e0"></rect><rect x="260.19" y="227.9" width="10.38" height="20.59" style="fill:#e0e0e0"></rect><rect x="175.61" y="248.49" width="136.91" height="4.34" style="fill:#e0e0e0"></rect><rect x="172.6" y="252.76" width="140.98" height="4.34" style="fill:#f5f5f5"></rect><rect x="166.26" y="261.44" width="152.69" height="4.34" style="fill:#f5f5f5"></rect><rect x="160.63" y="270.08" width="163.23" height="4.34" style="fill:#f5f5f5"></rect><rect x="169.23" y="257.1" width="146.85" height="4.34" style="fill:#e0e0e0"></rect><rect x="163.55" y="265.78" width="157.61" height="4.34" style="fill:#e0e0e0"></rect><path d="M311.35,166.31c0,.11-30,.2-67,.2s-67-.09-67-.2,30-.2,67-.2S311.35,166.2,311.35,166.31Z" style="fill:#e0e0e0"></path><path d="M313.17,164.16c0,.11-30.88.2-69,.2s-69-.09-69-.2,30.87-.2,69-.2S313.17,164.05,313.17,164.16Z" style="fill:#ebebeb"></path><path d="M313.33,160c0,.11-30.88.2-69,.2s-69-.09-69-.2,30.87-.2,69-.2S313.33,159.88,313.33,160Z" style="fill:#ebebeb"></path><path d="M313.33,157.3c0,.11-30.88.2-69,.2s-69-.09-69-.2,30.87-.2,69-.2S313.33,157.19,313.33,157.3Z" style="fill:#ebebeb"></path><path d="M312.61,155.93c-.11,0-30.88.2-69,.2-37.75,0-67.36-.07-69-.2-.11,0,30.87-.15,69-.2C283.1,155.69,313.23,155.8,312.61,155.93Z" style="fill:#ebebeb"></path><path d="M310.38,248.33c0,.11-30.07.2-67.16.2s-67.15-.09-67.15-.2,30.06-.21,67.15-.21S310.38,248.21,310.38,248.33Z" style="fill:#e0e0e0"></path><path d="M310.38,252.62c0,.11-30.07.2-67.16.2s-67.15-.09-67.15-.2,30.06-.2,67.15-.2S310.38,252.51,310.38,252.62Z" style="fill:#e0e0e0"></path><path d="M310.38,256.91c0,.11-31.53.25-70.42.3s-70.42,0-70.42-.11,31.52-.24,70.42-.29S310.38,256.8,310.38,256.91Z" style="fill:#e0e0e0"></path><path d="M309.93,261.44c0,.11-32.16.2-71.83.2s-71.84-.09-71.84-.2,32.16-.2,71.84-.2S309.93,261.33,309.93,261.44Z" style="fill:#e0e0e0"></path><path d="M310.38,265.78c0,.11-32.77.2-73.18.2s-73.18-.09-73.18-.2,32.76-.2,73.18-.2S310.38,265.67,310.38,265.78Z" style="fill:#e0e0e0"></path><path d="M310.38,270.11c0,.12-33.53.21-74.87.21s-74.88-.09-74.88-.21,33.52-.2,74.88-.2S310.38,270,310.38,270.11Z" style="fill:#e0e0e0"></path><path d="M310.38,274.41c0,.12-30.07.21-67.16.21s-67.15-.09-67.15-.21,30.06-.2,67.15-.2S310.38,274.3,310.38,274.41Z" style="fill:#e0e0e0"></path><polygon points="409.21 154.1 441.25 137.6 473.13 154.1 409.21 154.1" style="fill:#ebebeb"></polygon><rect x="409.21" y="154.1" width="63.93" height="3.69" style="fill:#e0e0e0"></rect><rect x="410.19" y="157.79" width="62.17" height="1.23" style="fill:#e0e0e0"></rect><path d="M473.2,157.79c0,.11-14.33.2-32,.2s-32-.09-32-.2,14.32-.2,32-.2S473.2,157.68,473.2,157.79Z" style="fill:#ebebeb"></path><path d="M472.41,159c0,.11-13.93.2-31.11.2s-31.11-.09-31.11-.2,13.92-.2,31.11-.2S472.41,158.91,472.41,159Z" style="fill:#ebebeb"></path><rect x="423.64" y="172.17" width="12.97" height="22.29" style="fill:#ebebeb"></rect><rect x="425" y="173.8" width="10.16" height="19.39" style="fill:#fafafa"></rect><path d="M429.88,193.28c-.11,0-.2-4.37-.2-9.76s.09-9.77.2-9.77.2,4.38.2,9.77S430,193.28,429.88,193.28Z" style="fill:#e0e0e0"></path><path d="M435.17,179.65a64.74,64.74,0,0,1-10.17,0,64.74,64.74,0,0,1,10.17,0Z" style="fill:#e0e0e0"></path><path d="M435.17,186.5a64.74,64.74,0,0,1-10.17,0,64.74,64.74,0,0,1,10.17,0Z" style="fill:#e0e0e0"></path><rect x="446.12" y="172.17" width="12.97" height="22.29" style="fill:#ebebeb"></rect><rect x="447.48" y="173.8" width="10.16" height="19.39" style="fill:#fafafa"></rect><path d="M452.36,193.28c-.11,0-.2-4.37-.2-9.76s.09-9.77.2-9.77.2,4.38.2,9.77S452.47,193.28,452.36,193.28Z" style="fill:#e0e0e0"></path><path d="M457.65,179.65a64.74,64.74,0,0,1-10.17,0,64.74,64.74,0,0,1,10.17,0Z" style="fill:#e0e0e0"></path><path d="M457.65,186.5a64.74,64.74,0,0,1-10.17,0,64.74,64.74,0,0,1,10.17,0Z" style="fill:#e0e0e0"></path><rect x="423.64" y="200.34" width="12.97" height="22.29" style="fill:#ebebeb"></rect><rect x="425" y="201.96" width="10.16" height="19.39" style="fill:#fafafa"></rect><path d="M429.88,221.44c-.11,0-.2-4.37-.2-9.76s.09-9.76.2-9.76.2,4.37.2,9.76S430,221.44,429.88,221.44Z" style="fill:#e0e0e0"></path><path d="M435.17,207.81a64.74,64.74,0,0,1-10.17,0,64.74,64.74,0,0,1,10.17,0Z" style="fill:#e0e0e0"></path><path d="M435.17,214.66a64.74,64.74,0,0,1-10.17,0,64.74,64.74,0,0,1,10.17,0Z" style="fill:#e0e0e0"></path><rect x="446.12" y="200.34" width="12.97" height="22.29" style="fill:#ebebeb"></rect><path d="M485.08,271.1c0,.15-103.87.26-232,.26s-232-.11-232-.26,103.85-.26,232-.26S485.08,271,485.08,271.1Z" style="fill:#e0e0e0"></path><rect x="447.48" y="201.96" width="10.16" height="19.39" style="fill:#fafafa"></rect><path d="M452.36,221.44c-.11,0-.2-4.37-.2-9.76s.09-9.76.2-9.76.2,4.37.2,9.76S452.47,221.44,452.36,221.44Z" style="fill:#e0e0e0"></path><path d="M457.65,207.81a64.74,64.74,0,0,1-10.17,0,64.74,64.74,0,0,1,10.17,0Z" style="fill:#e0e0e0"></path><path d="M457.65,214.66a64.74,64.74,0,0,1-10.17,0,64.74,64.74,0,0,1,10.17,0Z" style="fill:#e0e0e0"></path><rect x="322.06" y="199.34" width="12.97" height="22.29" style="fill:#f5f5f5"></rect><rect x="323.43" y="200.97" width="10.16" height="19.39" style="fill:#fafafa"></rect><path d="M328.31,220.45c-.11,0-.2-4.38-.2-9.77s.09-9.76.2-9.76.2,4.37.2,9.76S328.42,220.45,328.31,220.45Z" style="fill:#e0e0e0"></path><path d="M333.59,206.81a61.55,61.55,0,0,1-10.16,0,64.62,64.62,0,0,1,10.16,0Z" style="fill:#e0e0e0"></path><path d="M333.59,213.66a64.62,64.62,0,0,1-10.16,0,64.62,64.62,0,0,1,10.16,0Z" style="fill:#e0e0e0"></path><rect x="345.57" y="199.34" width="12.97" height="22.29" style="fill:#f5f5f5"></rect><rect x="346.93" y="200.97" width="10.16" height="19.39" style="fill:#fafafa"></rect><path d="M351.81,220.45c-.11,0-.2-4.38-.2-9.77s.09-9.76.2-9.76.2,4.37.2,9.76S351.92,220.45,351.81,220.45Z" style="fill:#e0e0e0"></path><path d="M357.1,206.81a61.67,61.67,0,0,1-10.17,0,64.74,64.74,0,0,1,10.17,0Z" style="fill:#e0e0e0"></path><path d="M357.1,213.66a64.74,64.74,0,0,1-10.17,0,64.74,64.74,0,0,1,10.17,0Z" style="fill:#e0e0e0"></path><rect x="369.07" y="199.34" width="12.97" height="22.29" style="fill:#f5f5f5"></rect><rect x="370.44" y="200.97" width="10.16" height="19.39" style="fill:#fafafa"></rect><path d="M375.31,220.45c-.11,0-.2-4.38-.2-9.77s.09-9.76.2-9.76.21,4.37.21,9.76S375.43,220.45,375.31,220.45Z" style="fill:#e0e0e0"></path><path d="M380.6,206.81a61.55,61.55,0,0,1-10.16,0,64.62,64.62,0,0,1,10.16,0Z" style="fill:#e0e0e0"></path><path d="M380.6,213.66a64.62,64.62,0,0,1-10.16,0,64.62,64.62,0,0,1,10.16,0Z" style="fill:#e0e0e0"></path><rect x="392.58" y="199.34" width="12.97" height="22.29" style="fill:#f5f5f5"></rect><rect x="393.94" y="200.97" width="10.16" height="19.39" style="fill:#fafafa"></rect><path d="M398.82,220.45c-.11,0-.2-4.38-.2-9.77s.09-9.76.2-9.76.2,4.37.2,9.76S398.93,220.45,398.82,220.45Z" style="fill:#e0e0e0"></path><path d="M404.11,206.81a61.67,61.67,0,0,1-10.17,0,64.74,64.74,0,0,1,10.17,0Z" style="fill:#e0e0e0"></path><path d="M404.11,213.66a64.74,64.74,0,0,1-10.17,0,64.74,64.74,0,0,1,10.17,0Z" style="fill:#e0e0e0"></path><rect x="309.42" y="228.03" width="163.89" height="3.77" style="fill:#e0e0e0"></rect><rect x="309.42" y="231.67" width="162.91" height="2.53" style="fill:#e0e0e0"></rect><path d="M309.42,232c0-.11,36.53-.2,81.57-.2s81.59.09,81.59.2-36.52.2-81.59.2S309.42,232.09,309.42,232Z" style="fill:#ebebeb"></path><path d="M309.42,234.2c0-.11,36.53-.2,81.57-.2s81.59.09,81.59.2-36.52.2-81.59.2S309.42,234.31,309.42,234.2Z" style="fill:#ebebeb"></path><path d="M309.42,228c0-.12,36.53-.21,81.57-.21s81.59.09,81.59.21-36.52.2-81.59.2S309.42,228.14,309.42,228Z" style="fill:#ebebeb"></path><path d="M334.54,238.1h1a6.32,6.32,0,0,1,6.32,6.32v22.72a0,0,0,0,1,0,0H328.22a0,0,0,0,1,0,0V244.42A6.32,6.32,0,0,1,334.54,238.1Z" style="fill:#e0e0e0"></path><path d="M334.68,240.2h.71a4.53,4.53,0,0,1,4.53,4.53V265a0,0,0,0,1,0,0h-9.77a0,0,0,0,1,0,0V244.72A4.53,4.53,0,0,1,334.68,240.2Z" style="fill:#fafafa"></path><path d="M335,265c-.11,0-.2-5.56-.2-12.42s.09-12.42.2-12.42.2,5.56.2,12.42S335.14,265,335,265Z" style="fill:#e0e0e0"></path><path d="M339.85,247.94a59.27,59.27,0,0,1-9.73,0,56.46,56.46,0,0,1,9.73,0Z" style="fill:#e0e0e0"></path><path d="M339.85,256.07a59.27,59.27,0,0,1-9.73,0,59.27,59.27,0,0,1,9.73,0Z" style="fill:#e0e0e0"></path><path d="M361,238.1h1a6.32,6.32,0,0,1,6.32,6.32v22.72a0,0,0,0,1,0,0H354.71a0,0,0,0,1,0,0V244.42A6.32,6.32,0,0,1,361,238.1Z" style="fill:#e0e0e0"></path><path d="M361.17,240.2h.71a4.53,4.53,0,0,1,4.53,4.53V265a0,0,0,0,1,0,0h-9.77a0,0,0,0,1,0,0V244.72A4.53,4.53,0,0,1,361.17,240.2Z" style="fill:#fafafa"></path><path d="M361.53,265c-.12,0-.21-5.56-.21-12.42s.09-12.42.21-12.42.2,5.56.2,12.42S361.64,265,361.53,265Z" style="fill:#e0e0e0"></path><path d="M366.35,247.94a59.27,59.27,0,0,1-9.73,0,56.46,56.46,0,0,1,9.73,0Z" style="fill:#e0e0e0"></path><path d="M366.35,256.07a59.27,59.27,0,0,1-9.73,0,59.27,59.27,0,0,1,9.73,0Z" style="fill:#e0e0e0"></path><path d="M387.53,238.1h1a6.32,6.32,0,0,1,6.32,6.32v22.72a0,0,0,0,1,0,0H381.21a0,0,0,0,1,0,0V244.42A6.32,6.32,0,0,1,387.53,238.1Z" style="fill:#e0e0e0"></path><path d="M387.67,240.2h.71a4.53,4.53,0,0,1,4.53,4.53V265a0,0,0,0,1,0,0h-9.77a0,0,0,0,1,0,0V244.72A4.53,4.53,0,0,1,387.67,240.2Z" style="fill:#fafafa"></path><path d="M388,265c-.11,0-.2-5.56-.2-12.42s.09-12.42.2-12.42.2,5.56.2,12.42S388.13,265,388,265Z" style="fill:#e0e0e0"></path><path d="M392.84,247.94a59.27,59.27,0,0,1-9.73,0,56.46,56.46,0,0,1,9.73,0Z" style="fill:#e0e0e0"></path><path d="M392.84,256.07a59.27,59.27,0,0,1-9.73,0,59.27,59.27,0,0,1,9.73,0Z" style="fill:#e0e0e0"></path><path d="M414,238.1h1a6.32,6.32,0,0,1,6.32,6.32v22.72a0,0,0,0,1,0,0H407.7a0,0,0,0,1,0,0V244.42A6.32,6.32,0,0,1,414,238.1Z" style="fill:#e0e0e0"></path><path d="M414.16,240.2h.71a4.53,4.53,0,0,1,4.53,4.53V265a0,0,0,0,1,0,0h-9.77a0,0,0,0,1,0,0V244.72A4.53,4.53,0,0,1,414.16,240.2Z" style="fill:#fafafa"></path><path d="M414.52,265c-.12,0-.21-5.56-.21-12.42s.09-12.42.21-12.42.2,5.56.2,12.42S414.63,265,414.52,265Z" style="fill:#e0e0e0"></path><path d="M419.33,247.94a59.15,59.15,0,0,1-9.72,0,56.34,56.34,0,0,1,9.72,0Z" style="fill:#e0e0e0"></path><path d="M419.33,256.07a59.15,59.15,0,0,1-9.72,0,59.15,59.15,0,0,1,9.72,0Z" style="fill:#e0e0e0"></path><path d="M440.52,238.1h1a6.32,6.32,0,0,1,6.32,6.32v22.72a0,0,0,0,1,0,0H434.19a0,0,0,0,1,0,0V244.42A6.32,6.32,0,0,1,440.52,238.1Z" style="fill:#e0e0e0"></path><path d="M440.66,240.2h.71a4.53,4.53,0,0,1,4.53,4.53V265a0,0,0,0,1,0,0h-9.77a0,0,0,0,1,0,0V244.72A4.53,4.53,0,0,1,440.66,240.2Z" style="fill:#fafafa"></path><path d="M441,265c-.11,0-.2-5.56-.2-12.42s.09-12.42.2-12.42.2,5.56.2,12.42S441.12,265,441,265Z" style="fill:#e0e0e0"></path><path d="M445.83,247.94a59.27,59.27,0,0,1-9.73,0,56.46,56.46,0,0,1,9.73,0Z" style="fill:#e0e0e0"></path><path d="M445.83,256.07a59.27,59.27,0,0,1-9.73,0,59.27,59.27,0,0,1,9.73,0Z" style="fill:#e0e0e0"></path><rect x="307.79" y="184.34" width="104.87" height="3.69" style="fill:#e0e0e0"></rect><rect x="309.39" y="188.03" width="101.99" height="1.23" style="fill:#e0e0e0"></rect><path d="M412.66,184.34h-.55l-1.59,0-6.1,0-22.41.06-74.22.08.2-.2V188h0l-.2-.2c50.71,0,93.29.06,104.87.15l-.05.05,0-2.78c0-.61,0-.91,0-.91s0,.28,0,.88,0,1.54,0,2.81v.05h0c-11.58.08-54.16.15-104.87.15h-.2V188h0v-3.88h.2l74.37.08,22.36.06,6.05,0,1.57,0Z" style="fill:#ebebeb"></path><path d="M309.39,188a1.16,1.16,0,0,1,0,.3c0,.23,0,.54,0,.93l-.05,0c5.05-.09,26-.16,51-.16s46,.07,51,.16l0,0c0-.39,0-.7,0-.92a1.19,1.19,0,0,1,0-.31s0,.1,0,.3.05.53.08.93v0h0c-5,.09-26,.16-51,.16s-46-.07-51-.16h0v0c0-.39,0-.7,0-.93S309.39,188,309.39,188Z" style="fill:#ebebeb"></path><polygon points="412.66 184.34 307.79 184.34 309.83 174.99 410.95 174.99 412.66 184.34" style="fill:#ebebeb"></polygon><polygon points="174.71 152.64 171.27 149.14 244.06 113.3 317.84 149.51 314.22 152.64 243.99 119.59 174.71 152.64" style="fill:#ebebeb"></polygon><circle cx="243.64" cy="137.84" r="10.14" style="fill:#e0e0e0"></circle><path d="M36.14,301.43a27.07,27.07,0,0,1-3.15-4.3,28.18,28.18,0,0,1-2.71-4.59,27.66,27.66,0,0,1,3.15,4.3A28.18,28.18,0,0,1,36.14,301.43Z" style="fill:#e0e0e0"></path><path d="M36.09,288.65c.15,0,.67,2.74,1.59,6.08s1.88,6,1.74,6a23.33,23.33,0,0,1-2.24-5.9A23.83,23.83,0,0,1,36.09,288.65Z" style="fill:#e0e0e0"></path><path d="M45.17,290.58a22.14,22.14,0,0,1-.63,4.82,21.71,21.71,0,0,1-1.15,4.71A23.31,23.31,0,0,1,44,295.3,23,23,0,0,1,45.17,290.58Z" style="fill:#e0e0e0"></path><path d="M121.72,293.09a26.69,26.69,0,0,1-3.14-4.3,27.33,27.33,0,0,1-2.71-4.59,27.26,27.26,0,0,1,3.14,4.3A27.33,27.33,0,0,1,121.72,293.09Z" style="fill:#e0e0e0"></path><path d="M121.68,280.31c.15,0,.66,2.74,1.59,6.08s1.88,6,1.74,6a23.31,23.31,0,0,1-2.25-5.9A23.06,23.06,0,0,1,121.68,280.31Z" style="fill:#e0e0e0"></path><path d="M130.76,282.24a22.91,22.91,0,0,1-.63,4.82,23.19,23.19,0,0,1-1.15,4.71,44.66,44.66,0,0,1,1.78-9.53Z" style="fill:#e0e0e0"></path><path d="M56.35,348a28,28,0,0,1-3.14-4.3,27.33,27.33,0,0,1-2.71-4.59,27.26,27.26,0,0,1,3.14,4.3A27.33,27.33,0,0,1,56.35,348Z" style="fill:#e0e0e0"></path><path d="M56.31,335.24c.15,0,.67,2.74,1.59,6.08s1.88,6,1.74,6a23.28,23.28,0,0,1-2.24-5.9A22.92,22.92,0,0,1,56.31,335.24Z" style="fill:#e0e0e0"></path><path d="M65.39,337.17a22.79,22.79,0,0,1-.63,4.81,22.42,22.42,0,0,1-1.15,4.72,22.85,22.85,0,0,1,.63-4.81A23.41,23.41,0,0,1,65.39,337.17Z" style="fill:#e0e0e0"></path><path d="M434.54,295a27.66,27.66,0,0,1-3.15-4.3,27.33,27.33,0,0,1-2.71-4.59,27.07,27.07,0,0,1,3.15,4.3A28.18,28.18,0,0,1,434.54,295Z" style="fill:#e0e0e0"></path><path d="M434.49,282.25c.15,0,.67,2.75,1.59,6.09s1.88,6,1.74,6a33.51,33.51,0,0,1-3.33-12.13Z" style="fill:#e0e0e0"></path><path d="M443.57,284.19a22.85,22.85,0,0,1-.63,4.81,22.42,22.42,0,0,1-1.15,4.72,23.24,23.24,0,0,1,.64-4.81A22.81,22.81,0,0,1,443.57,284.19Z" style="fill:#e0e0e0"></path><path d="M327.2,322.2a27.42,27.42,0,0,1-3.14-4.3,26.89,26.89,0,0,1-2.71-4.59,27.08,27.08,0,0,1,3.14,4.31A27.49,27.49,0,0,1,327.2,322.2Z" style="fill:#ebebeb"></path><path d="M327.16,309.42c.15,0,.66,2.74,1.59,6.08s1.88,6,1.74,6a32.86,32.86,0,0,1-3.33-12.12Z" style="fill:#ebebeb"></path><path d="M336.24,311.35a22.91,22.91,0,0,1-.63,4.82,23.64,23.64,0,0,1-1.15,4.72,22.84,22.84,0,0,1,.63-4.82A23.64,23.64,0,0,1,336.24,311.35Z" style="fill:#ebebeb"></path><path d="M444.9,352.19a27.67,27.67,0,0,1-3.14-4.31,26.89,26.89,0,0,1-2.71-4.59,27.83,27.83,0,0,1,3.14,4.31A26.89,26.89,0,0,1,444.9,352.19Z" style="fill:#ebebeb"></path><path d="M444.85,339.4c.16,0,.67,2.75,1.59,6.08s1.89,6,1.75,6a22.69,22.69,0,0,1-2.25-5.9A23.77,23.77,0,0,1,444.85,339.4Z" style="fill:#ebebeb"></path><path d="M453.94,341.33a46.31,46.31,0,0,1-1.78,9.54,44.6,44.6,0,0,1,1.78-9.54Z" style="fill:#ebebeb"></path><path d="M30.52,402.42a27.26,27.26,0,0,1-3.14-4.3,27.33,27.33,0,0,1-2.71-4.59,27.42,27.42,0,0,1,3.14,4.3A27.33,27.33,0,0,1,30.52,402.42Z" style="fill:#ebebeb"></path><path d="M30.48,389.63c.15,0,.66,2.75,1.59,6.09s1.88,6,1.74,6a23.49,23.49,0,0,1-2.25-5.91A23,23,0,0,1,30.48,389.63Z" style="fill:#ebebeb"></path><path d="M39.56,391.57a22.51,22.51,0,0,1-.64,4.81,22.81,22.81,0,0,1-1.14,4.72,22.85,22.85,0,0,1,.63-4.81A22.42,22.42,0,0,1,39.56,391.57Z" style="fill:#ebebeb"></path><path d="M111.54,340.72a27.66,27.66,0,0,1-3.15-4.3,28.18,28.18,0,0,1-2.71-4.59,27.07,27.07,0,0,1,3.15,4.3A26.89,26.89,0,0,1,111.54,340.72Z" style="fill:#ebebeb"></path><path d="M111.49,327.93c.15,0,.67,2.75,1.59,6.09s1.88,6,1.74,6a33.51,33.51,0,0,1-3.33-12.13Z" style="fill:#ebebeb"></path><path d="M120.57,329.87a22.09,22.09,0,0,1-.63,4.81,23,23,0,0,1-1.14,4.72,22,22,0,0,1,.63-4.81A22.81,22.81,0,0,1,120.57,329.87Z" style="fill:#ebebeb"></path><path d="M158.49,361.72a27.66,27.66,0,0,1-3.15-4.3,28.18,28.18,0,0,1-2.71-4.59,27.66,27.66,0,0,1,3.15,4.3A27.33,27.33,0,0,1,158.49,361.72Z" style="fill:#e0e0e0"></path><path d="M158.44,348.93c.15,0,.67,2.75,1.59,6.09s1.89,6,1.74,6a33.36,33.36,0,0,1-3.33-12.13Z" style="fill:#e0e0e0"></path><path d="M167.53,350.87a23.31,23.31,0,0,1-.64,4.81,22.81,22.81,0,0,1-1.14,4.72,22.09,22.09,0,0,1,.63-4.81A21.71,21.71,0,0,1,167.53,350.87Z" style="fill:#e0e0e0"></path><path d="M367.81,350a27.08,27.08,0,0,1-3.14-4.31,28,28,0,0,1-2.72-4.58,53.92,53.92,0,0,1,5.86,8.89Z" style="fill:#e0e0e0"></path><path d="M367.76,337.18c.15,0,.67,2.75,1.59,6.08s1.89,6,1.74,6.05a33.51,33.51,0,0,1-3.33-12.13Z" style="fill:#e0e0e0"></path><path d="M376.85,339.12a23.31,23.31,0,0,1-.64,4.81,23,23,0,0,1-1.14,4.72,22.91,22.91,0,0,1,.63-4.82A21.71,21.71,0,0,1,376.85,339.12Z" style="fill:#e0e0e0"></path><path d="M317.37,405.23a54.57,54.57,0,0,1-5.86-8.9,28.08,28.08,0,0,1,3.15,4.31A27.72,27.72,0,0,1,317.37,405.23Z" style="fill:#e0e0e0"></path><path d="M317.32,392.44c.15,0,.67,2.75,1.59,6.08s1.88,6,1.74,6.05a33.51,33.51,0,0,1-3.33-12.13Z" style="fill:#e0e0e0"></path><path d="M326.4,394.37a22.84,22.84,0,0,1-.63,4.82,22.12,22.12,0,0,1-1.15,4.72,46.31,46.31,0,0,1,1.78-9.54Z" style="fill:#e0e0e0"></path><path d="M432.6,404.92a28,28,0,0,1-3.14-4.3,27.33,27.33,0,0,1-2.71-4.59,54.72,54.72,0,0,1,5.85,8.89Z" style="fill:#e0e0e0"></path><path d="M432.56,392.13c.15,0,.66,2.75,1.59,6.09s1.88,6,1.74,6a23.26,23.26,0,0,1-2.24-5.91A22.81,22.81,0,0,1,432.56,392.13Z" style="fill:#e0e0e0"></path><path d="M441.64,394.07a44.66,44.66,0,0,1-1.78,9.53,22.79,22.79,0,0,1,.63-4.81A23.18,23.18,0,0,1,441.64,394.07Z" style="fill:#e0e0e0"></path><path d="M100.07,407.11a27.66,27.66,0,0,1-3.15-4.3,28.18,28.18,0,0,1-2.71-4.59,27.66,27.66,0,0,1,3.15,4.3A28.18,28.18,0,0,1,100.07,407.11Z" style="fill:#e0e0e0"></path><path d="M100,394.33c.15,0,.67,2.74,1.59,6.08s1.88,6,1.74,6A33.39,33.39,0,0,1,100,394.33Z" style="fill:#e0e0e0"></path><path d="M109.1,396.26a22.09,22.09,0,0,1-.63,4.81,21.71,21.71,0,0,1-1.15,4.72A23.31,23.31,0,0,1,108,401,23,23,0,0,1,109.1,396.26Z" style="fill:#e0e0e0"></path><path d="M140,105.31a26.61,26.61,0,0,0-3.15-6.53,9,9,0,0,0-5.93-3.86,5.5,5.5,0,0,0-5.86,3.3c-.34-5.17-1.08-10.48-3.67-15s-7.42-8-12.59-7.71c-4.88.3-9.06,3.93-11.38,8.23S94.28,93,93.52,97.83c-1.85-2.27-5.76-1.55-7.69.65s-2.42,5.28-2.83,8.18h58.22Z" style="fill:#ebebeb"></path><path d="M386.4,113.37a26.79,26.79,0,0,0-3.15-6.53,9,9,0,0,0-5.93-3.86,5.52,5.52,0,0,0-5.86,3.3c-.34-5.17-1.08-10.48-3.67-15s-7.42-8-12.59-7.7c-4.88.29-9.06,3.92-11.38,8.22s-3.12,9.24-3.88,14.07c-1.85-2.27-5.76-1.56-7.69.64s-2.42,5.28-2.83,8.18h58.22Z" style="fill:#f5f5f5"></path><path d="M187.32,57.91a17.28,17.28,0,0,0-2-4.24,5.86,5.86,0,0,0-3.85-2.5,3.58,3.58,0,0,0-3.81,2.14c-.22-3.36-.7-6.8-2.38-9.72s-4.82-5.21-8.18-5c-3.17.19-5.88,2.55-7.39,5.34s-2,6-2.51,9.13c-1.21-1.47-3.74-1-5,.42s-1.57,3.43-1.84,5.31h37.8Z" style="fill:#f5f5f5"></path><path d="M57.71,61.38a10.32,10.32,0,0,0-1.21-2.5,3.44,3.44,0,0,0-2.27-1.47A2.09,2.09,0,0,0,52,58.67a13.1,13.1,0,0,0-1.4-5.73A5.46,5.46,0,0,0,45.77,50a5.61,5.61,0,0,0-4.35,3.14,16.63,16.63,0,0,0-1.49,5.38,2,2,0,0,0-2.94.25,5.86,5.86,0,0,0-1.08,3.13H58.18Z" style="fill:#f5f5f5"></path><path d="M319.58,53.76a17.28,17.28,0,0,0-2-4.24,5.86,5.86,0,0,0-3.85-2.5,3.57,3.57,0,0,0-3.81,2.14c-.22-3.36-.7-6.81-2.38-9.72s-4.82-5.21-8.18-5c-3.16.19-5.88,2.54-7.38,5.34s-2,6-2.52,9.13c-1.2-1.47-3.74-1-5,.42s-1.57,3.42-1.84,5.31h37.8Z" style="fill:#ebebeb"></path><path d="M459.63,69.09A12.86,12.86,0,0,0,458.15,66a4.24,4.24,0,0,0-2.79-1.81,2.59,2.59,0,0,0-2.76,1.55,16.13,16.13,0,0,0-1.73-7,6.78,6.78,0,0,0-5.93-3.63A7,7,0,0,0,439.58,59a20.29,20.29,0,0,0-1.82,6.62c-.88-1.07-2.71-.73-3.62.3a7.29,7.29,0,0,0-1.34,3.86h27.42Z" style="fill:#ebebeb"></path></g><g id="freepik--Floor--inject-490"><path d="M467,450.63c0,.15-96.84.27-216.28.27s-216.29-.12-216.29-.27,96.82-.26,216.29-.26S467,450.49,467,450.63Z" style="fill:#263238"></path></g><g id="freepik--Plants--inject-490"><path d="M131.83,416.27a6.27,6.27,0,0,1,3.41,3.52,10.93,10.93,0,0,1,.66,4.95c-.21,3.24-1.89,6.59-3.75,9.25-2.83-2.24-3.64-6.35-3.93-8.46-.44-3.33.77-9.63,3.61-9.26" style="fill:#6366F1"></path><path d="M135.56,439.17a5.32,5.32,0,0,1,1.49-5.15,7.07,7.07,0,0,1,5.14-1.87,2.94,2.94,0,0,1,2.34.92,2.27,2.27,0,0,1,.15,2.31,4.64,4.64,0,0,1-1.64,1.77c-2.28,1.58-4.78,2.7-7.48,2" style="fill:#6366F1"></path><path d="M132.53,449.23a4.53,4.53,0,0,1,.07-.67c.06-.47.14-1.08.24-1.81a18.71,18.71,0,0,1,1.59-5.81,11.4,11.4,0,0,1,3.9-4.55,8,8,0,0,1,1.64-.82c.2-.08.37-.11.48-.15l.17,0a12,12,0,0,0-2.2,1.14,11.73,11.73,0,0,0-3.78,4.52,19.92,19.92,0,0,0-1.63,5.73c-.13.76-.24,1.37-.32,1.8A3.57,3.57,0,0,1,132.53,449.23Z" style="fill:#263238"></path><path d="M131.33,421.15a1.75,1.75,0,0,1,0,.28c0,.22.05.49.09.83.07.72.16,1.77.26,3.06.2,2.58.44,6.15.6,10.1s.24,7.52.25,10.11c0,1.3,0,2.35,0,3.07,0,.34,0,.62,0,.83a1.11,1.11,0,0,1,0,.29s0-.1,0-.29,0-.49,0-.83c0-.75,0-1.79-.07-3.06,0-2.59-.15-6.17-.31-10.11s-.37-7.52-.54-10.1c-.07-1.27-.14-2.31-.19-3.06,0-.34,0-.62,0-.83A1.07,1.07,0,0,1,131.33,421.15Z" style="fill:#263238"></path><path d="M131,441.36a12.5,12.5,0,0,0-7.24-8.83c-.93-.39-2.13-.62-2.84.09s-.49,1.92-.08,2.84a10.65,10.65,0,0,0,10.11,6.16" style="fill:#6366F1"></path><path d="M124.29,435.57a3.77,3.77,0,0,1,.59.23,4.71,4.71,0,0,1,.67.31c.25.14.55.28.85.48s.65.41,1,.67a11.47,11.47,0,0,1,1.06.88,12.81,12.81,0,0,1,3.43,5.17,13.34,13.34,0,0,1,.38,1.31,9.71,9.71,0,0,1,.21,1.17,7.42,7.42,0,0,1,.09,1,6.53,6.53,0,0,1,0,.74,4.07,4.07,0,0,1,0,.63c-.06,0,0-.9-.23-2.32a11.28,11.28,0,0,0-.24-1.15,11.05,11.05,0,0,0-.4-1.29,14.15,14.15,0,0,0-1.39-2.74,14.69,14.69,0,0,0-2-2.35,11.33,11.33,0,0,0-1-.87,10,10,0,0,0-1-.68C125.11,436,124.27,435.62,124.29,435.57Z" style="fill:#263238"></path><path d="M339.7,441.75c.16,0,.52,2.22,1.66,4.73s2.56,4.28,2.43,4.38a10.66,10.66,0,0,1-2.9-4.17A10.86,10.86,0,0,1,339.7,441.75Z" style="fill:#263238"></path><path d="M346.31,429.49a21.46,21.46,0,0,1,.21,3.12c.1,1.93.26,4.59.56,7.52s.71,5.56,1,7.47a21.19,21.19,0,0,1,.44,3.1,16.53,16.53,0,0,1-.8-3,72,72,0,0,1-1.17-7.48,71.32,71.32,0,0,1-.41-7.56A16.87,16.87,0,0,1,346.31,429.49Z" style="fill:#263238"></path><path d="M354.2,440.58a23.5,23.5,0,0,1-.29,4.87,23.84,23.84,0,0,1-.81,4.81,23.49,23.49,0,0,1,.29-4.87A22.12,22.12,0,0,1,354.2,440.58Z" style="fill:#263238"></path><path d="M409.74,441.75c.15,0,.51,2.22,1.65,4.73s2.56,4.28,2.43,4.38a10.9,10.9,0,0,1-2.9-4.17A10.76,10.76,0,0,1,409.74,441.75Z" style="fill:#263238"></path><path d="M417,435.83a8.89,8.89,0,0,1,.17,2.2c.06,1.35.06,3.23.27,5.27s.61,3.87.84,5.21a9.63,9.63,0,0,1,.29,2.19,9,9,0,0,1-.65-2.11,38.73,38.73,0,0,1-1-5.24,38.18,38.18,0,0,1-.11-5.32A9.4,9.4,0,0,1,417,435.83Z" style="fill:#263238"></path><path d="M425.53,437.2c.18,0-.16,3-.94,6.58l-1,4.59a8.59,8.59,0,0,1-.47,1.89c-.18,0,.17-3,.95-6.58.36-1.67.68-3.19,1-4.59A10.26,10.26,0,0,1,425.53,437.2Z" style="fill:#263238"></path><path d="M57.94,441.75c.16,0,.52,2.22,1.66,4.73s2.56,4.28,2.43,4.38a10.9,10.9,0,0,1-2.9-4.17A11,11,0,0,1,57.94,441.75Z" style="fill:#263238"></path><path d="M65.22,435.83a8.89,8.89,0,0,1,.17,2.2c.06,1.35.06,3.23.27,5.27s.6,3.87.83,5.21a10.09,10.09,0,0,1,.3,2.19,9.28,9.28,0,0,1-.66-2.11,40.57,40.57,0,0,1-1-5.24A40,40,0,0,1,65,438,9,9,0,0,1,65.22,435.83Z" style="fill:#263238"></path><path d="M73.74,437.2c.18,0-.17,3-.94,6.58l-1,4.59a9.35,9.35,0,0,1-.47,1.89c-.18,0,.17-3,1-6.58.35-1.67.68-3.19,1-4.59A10.26,10.26,0,0,1,73.74,437.2Z" style="fill:#263238"></path></g><g id="freepik--Character--inject-490"><path d="M226.31,85.61c-3.51,9.4-8,20.88-5.63,30.63.66,2.77,1.81,5.61,1.15,8.38-.92,3.84-5.07,6.44-5.49,10.37-.36,3.44,2.25,6.37,3.76,9.49,2,4.21,2.05,9.09,1.75,13.76s-.88,9.4.08,14,3.81,9.09,8.26,10.54l18.4-9.66-8.11-79.95Z" style="fill:#263238"></path><path d="M317.74,189.85c-2.16-5.34-3.05-11.31-6.49-15.94-2.88-3.88-7.45-6.67-8.89-11.28-1.78-5.71,2-11.83,1.12-17.74-1-6.69-7.43-11-11.1-16.67-7.83-12.09-8-28.89-12.46-39.79l-31.11,55.86c4.14,24.34,5.49,46.92,11.62,70.84,12.58,3.94,30.2,5.41,42.7,1.24-.81-2.75-1.62-5.49-2.44-8.24a9.43,9.43,0,0,0,6.88,4.08c4,.38,7.86-1.36,11.31-3.4a60.53,60.53,0,0,0,11.34-8.69C324.46,200.49,319.91,195.19,317.74,189.85Z" style="fill:#263238"></path><path d="M277.35,82.71c-4.83-8.11-12.15-13.46-21.47-15-5.26-.87-7.6-.11-11.55.35a16.83,16.83,0,0,0-10.43,4.84c-3.26,3.41-6.16,7.35-7.37,11.91A78.76,78.76,0,0,0,223.69,99a26.47,26.47,0,0,0,2.45,14.14L238,117.11c6.69,1.23,13.47,2.47,20.25,1.92s13.67-3.11,18-8.32C282.35,103.47,282.18,90.82,277.35,82.71Z" style="fill:#263238"></path><path d="M266.53,81l-15.25-8.88L247,72c-9.55-1.4-17.7,8.12-18.93,15.83-1.35,8.57-2.67,19.08-2.26,25.6.83,13.12,11.53,15.81,11.53,15.81l-.55,12.45-3.61,3.48-5.25,27.09,19.63,5.17,21-44.83-6,.26L270.17,86A4.57,4.57,0,0,0,266.53,81Z" style="fill:#ffbf9d"></path><path d="M245.3,113.31a2.72,2.72,0,0,0-.68-1.81,2.81,2.81,0,0,0-3.33-.7,3.76,3.76,0,0,0-1.93,3.27h0a3.41,3.41,0,0,0,2.2,1.76l.45.08a3,3,0,0,0,2.16-.5A2.72,2.72,0,0,0,245.3,113.31Z" style="fill:#ff9a6c"></path><path d="M231.94,99.3a1.67,1.67,0,0,0,1.44,1.83,1.59,1.59,0,0,0,1.85-1.34A1.65,1.65,0,0,0,233.79,98,1.59,1.59,0,0,0,231.94,99.3Z" style="fill:#263238"></path><path d="M230.31,92.55c.18.23,1.53-.58,3.31-.41s3,1.19,3.22,1-.06-.49-.6-1a4.53,4.53,0,0,0-2.55-1.06,4.35,4.35,0,0,0-2.66.59C230.44,92.07,230.21,92.44,230.31,92.55Z" style="fill:#263238"></path><path d="M239.6,108.13a11.71,11.71,0,0,0-2.85-.8c-.45-.09-.87-.22-.92-.54a2.3,2.3,0,0,1,.43-1.32l1.68-3.34c2.34-4.76,4.08-8.69,3.88-8.79s-2.24,3.7-4.58,8.46q-.86,1.76-1.62,3.36a2.62,2.62,0,0,0-.41,1.77,1.16,1.16,0,0,0,.69.74,3.74,3.74,0,0,0,.76.18A11.56,11.56,0,0,0,239.6,108.13Z" style="fill:#263238"></path><path d="M237.29,129.21a33.11,33.11,0,0,0,17.76-3s-5.06,8.83-17.89,6.39Z" style="fill:#ff9a6c"></path><path d="M244.74,109.86c-.29,0-.48,1.89-2.27,3.11s-3.83.81-3.87,1.08.43.42,1.3.52a4.82,4.82,0,0,0,3.22-.79,4.21,4.21,0,0,0,1.77-2.62C245,110.36,244.87,109.86,244.74,109.86Z" style="fill:#263238"></path><path d="M231.84,86.44c.26.46,1.65.3,3.24.59s2.87.82,3.26.46c.17-.17,0-.61-.48-1.1a4.82,4.82,0,0,0-2.5-1.16,4.72,4.72,0,0,0-2.73.31C232,85.84,231.73,86.22,231.84,86.44Z" style="fill:#263238"></path><path d="M251.69,100.87a1.68,1.68,0,0,1-1.82,1.46,1.59,1.59,0,0,1-1.5-1.72,1.66,1.66,0,0,1,1.81-1.45A1.6,1.6,0,0,1,251.69,100.87Z" style="fill:#263238"></path><path d="M254.37,95.45c-.23.19-1.36-.9-3.14-1.13s-3.2.49-3.36.24.18-.47.8-.8a4.56,4.56,0,0,1,2.73-.46,4.37,4.37,0,0,1,2.46,1.17C254.35,95,254.49,95.37,254.37,95.45Z" style="fill:#263238"></path><path d="M254.16,89.63c-.4.35-1.72-.25-3.37-.48s-3.08-.14-3.34-.6c-.12-.22.16-.6.82-.9a5.15,5.15,0,0,1,2.83-.3,5.09,5.09,0,0,1,2.58,1.17C254.2,89,254.34,89.45,254.16,89.63Z" style="fill:#263238"></path><path d="M264.73,107.22c.09-1,1.42-3.13,2.38-3.19,2.58-.15,7.14.48,6.58,6.93-.78,8.82-9.48,6.23-9.47,6S264.41,110.54,264.73,107.22Z" style="fill:#ffbf9d"></path><path d="M266.93,113.92s.15.12.4.27a1.58,1.58,0,0,0,1.14.12c1-.26,1.88-1.67,2.06-3.26a4.93,4.93,0,0,0-.23-2.23,1.77,1.77,0,0,0-1.05-1.28.79.79,0,0,0-.95.34c-.14.23-.1.41-.15.43s-.17-.17-.07-.53a1,1,0,0,1,.4-.52,1.19,1.19,0,0,1,.87-.15,2.18,2.18,0,0,1,1.48,1.51,5.27,5.27,0,0,1,.32,2.5c-.21,1.78-1.27,3.36-2.58,3.62a1.67,1.67,0,0,1-1.38-.36C266.93,114.14,266.9,113.94,266.93,113.92Z" style="fill:#ff9a6c"></path><path d="M267.47,104.11l-2.57,2c-8.22-10.62-23.52-36.4-22.67-34.88a28.33,28.33,0,0,1,13.93.57c6.95,2.29,19.95,7.88,18.47,16.26S267.47,104.11,267.47,104.11Z" style="fill:#263238"></path><path d="M295.59,199.17c-6.61-7.79-13.52-16.28-14.48-26.45-.54-5.81.93-11.76-.33-17.46s-5.1-10.39-8.1-15.39S266.32,107,268.5,101.6L262,99.53c-3.72,9-3,45.93,1.86,54.33,2.11,3.64,5,7,5.86,11.12,1.29,6.26-2.44,12.68-1.45,19,1.34,8.65,11.15,15.14,9.87,23.79A53.62,53.62,0,0,0,295.59,199.17Z" style="fill:#263238"></path><path d="M203.73,57.16c.37.11,28,5.78,28,5.78l42.57,5.49,28.59.42.11-1.72L248.63,57.06l-44.82-1.12Z" style="fill:#263238"></path><path d="M228.41,80.07l3.32-17.13s17.79-6.48,44.54,5.52l4.06,21S265.71,77.91,243,79.71c0,0-9.25-3.81-14.61.36Z" style="fill:#455a64"></path><path d="M279.07,83S269,77.54,259.62,75.56a42.5,42.5,0,0,0-16.26-.48,18.46,18.46,0,0,0-13.93,0h0l-1,5c5.36-4.17,14.61-.36,14.61-.36,22.69-1.8,37.31,9.78,37.31,9.78Z" style="fill:#6366F1"></path><path d="M243,79.71a15.94,15.94,0,0,1,0-2.89c.09-1.79.26-4.25.5-7s.48-5,.66-6.94a15.52,15.52,0,0,1,.39-2.87,15.94,15.94,0,0,1,0,2.89c-.09,1.79-.27,4.25-.51,7s-.47,5-.65,6.94A16.65,16.65,0,0,1,243,79.71Z" style="fill:#263238"></path><polygon points="302.89 68.85 248.29 58.87 203.73 57.16 203.81 55.94 248.87 56.95 303 67.13 302.89 68.85" style="fill:#455a64"></polygon><path d="M248.32,59c-.14,0-.23-.48-.19-1.06s.19-1,.33-1,.23.49.19,1.07S248.47,59.05,248.32,59Z" style="fill:#263238"></path><path d="M208.55,68.4l-1.52,0a4.06,4.06,0,0,0-2.49,3.36,104.7,104.7,0,0,0-2.07,14.66l4.75.31c.38,0,.33-12.17,1.13-.06,0,.42,2.72.33,2.61-.13-1.34-5.66-1.28-10.79-1.35-15.63A2.63,2.63,0,0,0,208.55,68.4Z" style="fill:#6366F1"></path><path d="M208.57,66.28a32.88,32.88,0,0,1,.54-4.43,11.84,11.84,0,0,1,1-3.52,4.1,4.1,0,0,1,2.58-2.17,6.3,6.3,0,0,1,4.18,1c.71.38,1.34-.7.63-1.08a7.81,7.81,0,0,0-4.78-1.19,5,5,0,0,0-3.37,2.28,10.86,10.86,0,0,0-1.43,4,36.76,36.76,0,0,0-.65,5.12c0,.81,1.2.8,1.25,0Z" style="fill:#6366F1"></path><path d="M209.84,67.23a2.23,2.23,0,1,1-2.08-2.3A2.19,2.19,0,0,1,209.84,67.23Z" style="fill:#6366F1"></path><path d="M209.84,67.23s0-.2-.13-.52a2.19,2.19,0,0,0-.76-1.12,2.14,2.14,0,0,0-1.88-.35,1.89,1.89,0,0,0-.24,3.58,2.14,2.14,0,0,0,1.91-.1,2.11,2.11,0,0,0,.9-1c.13-.3.16-.5.2-.49s.08.2,0,.56a2.15,2.15,0,0,1-.9,1.25,2.46,2.46,0,0,1-2.29.22,2.35,2.35,0,0,1,.31-4.48,2.45,2.45,0,0,1,2.23.53,2.16,2.16,0,0,1,.73,1.36C209.94,67,209.87,67.23,209.84,67.23Z" style="fill:#263238"></path><path d="M204.32,82.94a6.38,6.38,0,0,1-.09-2.11,42,42,0,0,1,.59-5A34.67,34.67,0,0,1,206,70.85a7.74,7.74,0,0,1,.62-1.42c.18-.33.38-.45.39-.43s-.09.18-.21.52a12.21,12.21,0,0,0-.45,1.44c-.33,1.24-.7,3-1,4.92s-.59,3.7-.74,5A12.72,12.72,0,0,1,204.32,82.94Z" style="fill:#263238"></path><path d="M206.75,79.66a19.38,19.38,0,0,1-.1-5.32,19.81,19.81,0,0,1,.86-5.26,44.91,44.91,0,0,1-.34,5.3A45.49,45.49,0,0,1,206.75,79.66Z" style="fill:#263238"></path><path d="M208.39,72.1c-.15,0-.27-.65-.29-1.45s.09-1.44.24-1.45.27.65.28,1.45S208.53,72.09,208.39,72.1Z" style="fill:#263238"></path><polygon points="215 56.24 218.56 56.3 218.56 57.49 214.71 57.17 215 56.24" style="fill:#455a64"></polygon><path d="M209.64,244c-.45.66-10.62,35.39-9.07,46.68s9.07,44.69,9.07,44.69,4.64,19,3.76,26.54-.53,32.71,2,47.79c2.9,17.42,6,48.64,6,48.64l22.43-1.73-1-108.63,5.53-42.7,3.1-41.82Z" style="fill:#263238"></path><path d="M274,443.48,271.78,468l4.08,19.89a2.53,2.53,0,0,1-2.26,3h0a2.65,2.65,0,0,1-2.27-.79c-3.68-3.83-17.15-18-16.88-19.79.31-2.07.56-26,.56-26Z" style="fill:#263238"></path><path d="M273.6,490.87l-19-22.24-.07,1a3.64,3.64,0,0,0,.78,2.51c1.5,1.94,5.79,7.19,16,17.9a2.71,2.71,0,0,0,2.35.79Z" style="fill:#455a64"></path><g style="opacity:0.6000000000000001"><path d="M260.37,461a1.48,1.48,0,0,1,.3,2,1.59,1.59,0,0,1-2.09.31,1.57,1.57,0,0,1-.31-2.14,1.65,1.65,0,0,1,2.21-.08" style="fill:#fff"></path></g><path d="M268.44,479.78a8.27,8.27,0,0,1,2.39-1.77,8.47,8.47,0,0,1,3-.36c0-.06-.28-.27-.88-.39a4.31,4.31,0,0,0-2.33.25,4.12,4.12,0,0,0-1.83,1.4C268.45,479.4,268.38,479.76,268.44,479.78Z" style="fill:#fff"></path><path d="M270.05,483.18c.12.12,1-.63,2.35-.91a23.48,23.48,0,0,1,2.53-.16,3,3,0,0,0-2.65-.37C270.73,482.07,269.93,483.11,270.05,483.18Z" style="fill:#fff"></path><path d="M265.32,475.36a25.42,25.42,0,0,1,3.52-1.65,28.73,28.73,0,0,1,3.87-.62,6.13,6.13,0,0,0-4,.1A5.83,5.83,0,0,0,265.32,475.36Z" style="fill:#fff"></path><path d="M265.35,467.85c.06.15,1.51-.33,3.37-.28s3.29.56,3.35.41a5.29,5.29,0,0,0-3.34-1A5.23,5.23,0,0,0,265.35,467.85Z" style="fill:#fff"></path><path d="M265.81,460.63a13.93,13.93,0,0,1,3.5-.38,13.65,13.65,0,0,1,3.36,1s-.22-.37-.79-.74a5.83,5.83,0,0,0-2.51-.82,5.9,5.9,0,0,0-2.64.34C266.1,460.31,265.78,460.58,265.81,460.63Z" style="fill:#fff"></path><path d="M269.36,458.88a2.2,2.2,0,0,0,.1-.93,6.3,6.3,0,0,0-.61-2.48,2.87,2.87,0,0,0-1.2-1.44,1.07,1.07,0,0,0-1.2.15,1.56,1.56,0,0,0-.48,1.08,3.6,3.6,0,0,0,3,3.49,4.37,4.37,0,0,0,4.38-1.9,1.31,1.31,0,0,0,.15-1.18,1,1,0,0,0-1.05-.59,3.8,3.8,0,0,0-1.75.73,7.6,7.6,0,0,0-1.88,1.8c-.36.5-.48.81-.45.83a11.5,11.5,0,0,1,2.56-2.31,3.52,3.52,0,0,1,1.54-.61.57.57,0,0,1,.57.32.93.93,0,0,1-.15.78,3.94,3.94,0,0,1-3.82,1.6,3.14,3.14,0,0,1-2.62-2.93,1.14,1.14,0,0,1,.3-.77.59.59,0,0,1,.66-.09,2.62,2.62,0,0,1,1,1.21A9.34,9.34,0,0,1,269.36,458.88Z" style="fill:#fff"></path><path d="M286.71,245.9c.44.66,10.62,35.4,9.07,46.68s-9.07,44.69-9.07,44.69-4.65,19-3.76,26.55-.67,32.55-2,47.78c-1.49,17.13-5.25,46.92-5.25,46.92L252.38,457l1.14-107.12L248,307.18l-3.1-41.81Z" style="fill:#263238"></path><path d="M222.41,444.25l1.17,20.32s-21.22,7.95-21.38,11.73l41.29-.75L243,443.83Z" style="fill:#263238"></path><path d="M236.32,462.63a1.61,1.61,0,0,1,1.2,1.82,1.63,1.63,0,0,1-1.88,1.15,1.54,1.54,0,1,1,.83-2.93" style="fill:#e0e0e0"></path><path d="M243.49,475.55l-.17-3.19-39.53,1.9s-1.83.8-1.59,2Z" style="fill:#455a64"></path><path d="M222.91,464.38c0,.19,1,.26,2,.86s1.55,1.4,1.73,1.32-.14-1.18-1.36-1.89S222.86,464.2,222.91,464.38Z" style="fill:#fff"></path><path d="M218.61,466.17c-.05.19.83.5,1.54,1.3s.91,1.66,1.11,1.65.31-1.1-.58-2.09S218.61,466,218.61,466.17Z" style="fill:#fff"></path><path d="M216.24,471.17c.19,0,.45-.93-.09-2s-1.49-1.45-1.57-1.29.51.72.94,1.58S216,471.15,216.24,471.17Z" style="fill:#fff"></path><path d="M223.18,459.72c.09.17,1-.11,2.15-.05s2,.38,2.13.21-.76-.84-2.11-.89S223.08,459.57,223.18,459.72Z" style="fill:#fff"></path><path d="M203,248c-.5,1.78-18.29,127.5-15.18,135s16.66,9.1,16.66,9.1,1,28.41,24.65,24.69,50-28.82,50-28.82,1.88,10.56,6.23,8.69,18.1-19.33,19.81-19.33-13.57-159.14-11.86-161.1-10.88-76.65-10.88-76.65L263,136.63l-20.16,22.14-9.11-19.25-16.79,6.82L207,150Z" style="fill:#455a64"></path><path d="M230.83,217.5c.63,1.53,28.75,54.78,34.28,55.71s28.38-15.92,29.24-21L293.93,237l-45.8-31.49" style="opacity:0.30000000000000004"></path><path d="M284.13,139.52s10.57,2.18,12.36,11.12S309,196.38,306.76,208s-17.47,47.15-27.4,53.38-10.14,5.25-10.14,5.25-31.76-42.5-32.76-48.66l-1-6.15L275,196.56l2.32-42.19Z" style="fill:#455a64"></path><polygon points="234.64 139.52 237.05 135.01 243.99 143.37 260.38 130.98 261.4 135.53 262.97 136.63 243.99 160.23 239.77 158.77 234.64 139.52" style="fill:#fff"></polygon><polygon points="209.79 148.05 236.26 218.87 285.97 139.52 261.94 135.53 243.2 155.04 234.34 138.04 209.79 148.05" style="fill:#6366F1"></polygon><path d="M201.93,254.76s3.59,7.59,9.13,3.46c11.41-8.48,15.6-33.93,15.6-33.93l9.6-5.42h6.55l2.51-8.63,8.18-3.66s8.13,2,11.61-1.06,9.48-12.39,9.48-12.39l-20.83.38-48.84,42.22Z" style="opacity:0.30000000000000004"></path><path d="M184,201.29c0-.52,5.57-25.06,5.57-25.06s7.48-15.15,10.79-20.72,7.84-5.76,7.84-5.76l8.7,18.29-3.48,29.42,15.67-.69s-6.45,37.78-12.19,47.35-10.36,10.62-10.36,10.62-12.14-22.6-17.15-34.47C184.7,209.13,184.53,211.39,184,201.29Z" style="fill:#455a64"></path><path d="M194.36,198a6.85,6.85,0,0,1,1.87-1,23.06,23.06,0,0,1,4.88-1.44,17,17,0,0,1,5.09-.11,5.66,5.66,0,0,1,2,.52,28.19,28.19,0,0,0-7,.11C197.35,196.79,194.43,198.16,194.36,198Z" style="fill:#263238"></path><path d="M199,189.87a13.13,13.13,0,0,1,5.18,2.24,13,13,0,0,1,4.09,3.89c-.12.11-1.81-1.77-4.38-3.45S198.91,190,199,189.87Z" style="fill:#263238"></path><path d="M279.31,223.05a5.54,5.54,0,0,1-1.24-.35c-.8-.26-1.93-.68-3.31-1.23a99.44,99.44,0,0,1-10.54-4.92,101.36,101.36,0,0,1-9.9-6.1c-1.22-.86-2.19-1.58-2.84-2.1a5.49,5.49,0,0,1-1-.84,5.88,5.88,0,0,1,1.1.68l2.92,1.95c2.48,1.63,6,3.8,10,6s7.7,3.87,10.43,5l3.24,1.38A7.21,7.21,0,0,1,279.31,223.05Z" style="fill:#263238"></path><path d="M287.45,211.11a8.09,8.09,0,0,1-1.41,0c-.91,0-2.21-.07-3.83-.18-3.23-.21-7.69-.65-12.57-1.42s-9.26-1.74-12.4-2.54c-1.57-.4-2.83-.75-3.7-1a6.7,6.7,0,0,1-1.33-.46,7.43,7.43,0,0,1,1.39.27l3.73.85c3.15.71,7.52,1.61,12.39,2.39s9.3,1.26,12.52,1.57l3.81.34A6.85,6.85,0,0,1,287.45,211.11Z" style="fill:#263238"></path><path d="M289.69,192.15c0,.15-2.62.5-5.84,1.15s-5.78,1.33-5.83,1.19a22.37,22.37,0,0,1,5.73-1.7A22.08,22.08,0,0,1,289.69,192.15Z" style="fill:#263238"></path><path d="M229.38,408.72s0-.17,0-.49,0-.82,0-1.44v-5.52c0-4.8.06-11.74.17-20.31.22-17.15.73-40.84,1.72-67s2.26-49.82,3.34-66.94c.53-8.56,1-15.48,1.36-20.27.18-2.37.32-4.22.41-5.5.06-.61.1-1.09.13-1.43s.05-.49.05-.49,0,.17,0,.49,0,.82-.07,1.43c-.08,1.29-.18,3.14-.32,5.52-.28,4.81-.69,11.73-1.19,20.27-1,17.12-2.2,40.79-3.19,66.94s-1.56,49.84-1.87,67c-.14,8.56-.26,15.49-.34,20.31,0,2.38-.07,4.24-.09,5.52,0,.62,0,1.1,0,1.44S229.38,408.72,229.38,408.72Z" style="fill:#263238"></path><path d="M214.69,272.28c.15,0-2,27.15-4.87,60.61s-5.25,60.58-5.4,60.57,2-27.15,4.88-60.61S214.55,272.27,214.69,272.28Z" style="fill:#263238"></path><path d="M279.07,387.91s15-10.72,14.36-4.91-6.31,12.35-6.31,12.35-3.72,3.8-5.89-1A29,29,0,0,1,279.07,387.91Z" style="opacity:0.30000000000000004"></path><path d="M293.17,320c.15,0,.26,13.67.26,30.52s-.11,30.52-.26,30.52-.26-13.66-.26-30.52S293,320,293.17,320Z" style="fill:#263238"></path><path d="M254.53,366.81c-.15,0-.47-16.78-.72-37.47s-.34-37.48-.2-37.49.47,16.78.72,37.48S254.67,366.8,254.53,366.81Z" style="fill:#263238"></path><g style="opacity:0.30000000000000004"><path d="M204.9,389.88l8.53-102.74C203.61,322.54,203.92,354.82,204.9,389.88Z"></path></g><path d="M222.07,229.71c.55-2.7,2.59-12.63,5.49-26.78.45-2.17.88-4.28,1.29-6.29l.26.3-8.21.44h0a87.9,87.9,0,0,1-9.2-.78c-1.1-.15-2-.29-2.55-.4a5.43,5.43,0,0,1-.89-.2,3.88,3.88,0,0,1,.91.07l2.56.28c2.2.23,5.36.5,9.18.59h0l8.21-.5.33,0-.07.32c-.4,2-.83,4.12-1.27,6.29-1.51,7.4-2.93,14.08-4,18.91-.55,2.42-1,4.36-1.36,5.71-.17.67-.32,1.18-.43,1.53A2.45,2.45,0,0,1,222.07,229.71Z" style="fill:#263238"></path><path d="M209.47,172.89c.31.1,5.8,5.9,6.51,8s4.9,16.23,4.9,16.23-9.17-.26-11.41-1.28a16.71,16.71,0,0,1-3.66-2.24l-5.09-4.27s-3.25-1.22-3.25-3.66L198,185l5.19,1.5s-5-2-5.7-3.86,0-2.14,0-2.14l10.17,3.26-4.07-3.16s-5.08-1.63-4.88-3.56l.41-.71,6.1,1,4.88,2.44s-2.34-4.27-2.34-6S209.47,172.89,209.47,172.89Z" style="fill:#ffbf9d"></path><path d="M211,192.38c-.07,0-.38-.44-1-1.1a17.71,17.71,0,0,0-2.68-2.27c-2.27-1.59-4.4-2.38-4.34-2.53a11.19,11.19,0,0,1,4.63,2.1,12.09,12.09,0,0,1,2.67,2.47A2.93,2.93,0,0,1,211,192.38Z" style="fill:#ff9a6c"></path><path d="M213.33,189a24.69,24.69,0,0,1-3-2.67,24.78,24.78,0,0,1-2.89-2.77,17.88,17.88,0,0,1,5.86,5.44Z" style="fill:#ff9a6c"></path><path d="M216.25,188a19.83,19.83,0,0,1-3.17-4.45,19.48,19.48,0,0,0-2-3.22,2.69,2.69,0,0,0-1.34-.66c0-.06.72-.3,1.58.38a4.74,4.74,0,0,1,1.1,1.41l1.06,1.83A52.42,52.42,0,0,1,216.25,188Z" style="fill:#ff9a6c"></path><path d="M266.6,136.63a2.62,2.62,0,0,1-.39.49L265,138.46l-4.43,4.86-14.76,15.91-3.25,3.47-.24.26-.18-.31-9-16.13-2.61-4.8-.69-1.31a3,3,0,0,1-.21-.46s.12.13.3.42l.76,1.26c.68,1.16,1.6,2.76,2.75,4.72l9.14,16.05-.41-.05,3.25-3.48,14.87-15.8c1.88-2,3.43-3.58,4.55-4.74l1.25-1.28A3.45,3.45,0,0,1,266.6,136.63Z" style="fill:#263238"></path><path d="M242.77,194c-.35.09-13.71,2.9-13.71,2.9l-5.18,25.59,9.45-6.66s8.49-1,8.75-1S242.77,194,242.77,194Z" style="fill:#fff"></path><path d="M291.25,128l-26.14,57.22,9.63,5.17,25.62-58.67S298.25,125,291.25,128Z" style="fill:#e0e0e0"></path><path d="M293.39,127.56c.13,0-4.63,11.34-10.64,25.21s-11,25.07-11.13,25,4.63-11.34,10.65-25.21S293.26,127.5,293.39,127.56Z" style="fill:#263238"></path><path d="M262.76,178.68l-8.07,10.76-11.92,4.95-.37,14.19,11.94-6s3.39.78,5.21-.27,7.72-6.5,7.72-6.5l4.07.61a2.41,2.41,0,0,0-.69,2.25,1.68,1.68,0,0,0,1.82,1.13s2.78-1.39,2.86-2.26a5.54,5.54,0,0,0,0-1.38,1.76,1.76,0,0,0,1.57-1.3,20.44,20.44,0,0,0,.6-2.17,4.16,4.16,0,0,0,1.74-2.69l.08-1.56s1.39-.09,1.65-1.13a13.47,13.47,0,0,0,0-5c-.34-.69-3.81-5-5.29-5S264,177,262.76,178.68Z" style="fill:#ffbf9d"></path><path d="M275.5,196.56a10.25,10.25,0,0,1-.27-1.64,2.94,2.94,0,0,0-.7-1.51,6,6,0,0,0-1.85-1,32.66,32.66,0,0,1-5.13-2.55,32.21,32.21,0,0,1,5.34,2.07,5.71,5.71,0,0,1,2,1.18,3.11,3.11,0,0,1,.72,1.77A3.79,3.79,0,0,1,275.5,196.56Z" style="fill:#ff9a6c"></path><path d="M276.86,193.4a4.18,4.18,0,0,1-.33-2,5.66,5.66,0,0,0-.34-2.08,3.2,3.2,0,0,0-1.91-1.53c-3.55-1.42-6.53-2.3-6.49-2.45a7,7,0,0,1,2,.4,41.3,41.3,0,0,1,4.68,1.57,3.53,3.53,0,0,1,2.15,1.82,5.41,5.41,0,0,1,.27,2.26C276.82,192.63,276.92,193.38,276.86,193.4Z" style="fill:#ff9a6c"></path><path d="M267.45,181.28a10,10,0,0,1,2.3.39c1.4.31,3.32.78,5.44,1.32a5.35,5.35,0,0,1,2.9,1.32,4.22,4.22,0,0,1,.82,2.47c0,1.45.2,2.28.16,2.31s-.15-.19-.26-.58a14.33,14.33,0,0,1-.27-1.69,4.07,4.07,0,0,0-.82-2.2,5.26,5.26,0,0,0-2.66-1.13c-2.12-.54-4-1.06-5.4-1.46A10.74,10.74,0,0,1,267.45,181.28Z" style="fill:#ff9a6c"></path><path d="M275.93,161.5a9.24,9.24,0,0,1,9.42,4.56l2.27-5.2s-2.37-5.81-9.6-4Z" style="fill:#6366F1"></path><path d="M287.32,160c-.3.15-1.47-1.32-2.48-4.16a21.15,21.15,0,0,1-1.11-5.21,8.8,8.8,0,0,1,.42-3.43,4.47,4.47,0,0,1,3.1-3,3,3,0,0,1,1.46.08,3.17,3.17,0,0,1,1.18.72A3.86,3.86,0,0,1,291,147a7.93,7.93,0,0,1,.09,1.84c0,.52-.08,1-.14,1.52a24.77,24.77,0,0,1-1.18,5.14c-1,2.82-2.16,4.31-2.46,4.17s.18-1.88.68-4.65a39.5,39.5,0,0,0,.57-4.86,11.68,11.68,0,0,0-.06-2.62,1.33,1.33,0,0,0-.37-.71c-.17-.14-.22-.14-.36-.12a1.31,1.31,0,0,0-.65.43,3.1,3.1,0,0,0-.56,1,6.89,6.89,0,0,0-.41,2.47,30.23,30.23,0,0,0,.49,4.81C287.12,158.16,287.67,159.87,287.32,160Z" style="fill:#6366F1"></path><path d="M286.87,160.05c-.09-.14.18-.52.84-.94a7.9,7.9,0,0,1,3.16-1.11,10.33,10.33,0,0,1,5,.57,10,10,0,0,1,2.68,1.5,6.22,6.22,0,0,1,1.26,1.22,4.11,4.11,0,0,1,.53,1,3.11,3.11,0,0,1,.22,1.22,2.76,2.76,0,0,1-.33,1.3,2.57,2.57,0,0,1-1,1,3.55,3.55,0,0,1-2.14.38,11.16,11.16,0,0,1-1.54-.29,13.5,13.5,0,0,1-1.36-.4,15.76,15.76,0,0,1-4.33-2.24c-2.24-1.66-3.09-3.18-2.85-3.4s1.57.72,3.81,1.83a20.25,20.25,0,0,0,4.05,1.51c.4.1.8.2,1.21.27s.88.16,1.21.18a1.18,1.18,0,0,0,.65-.08h0a.46.46,0,0,0,0-.13c0-.24-.34-.84-1-1.36a8.71,8.71,0,0,0-2-1.26,10.5,10.5,0,0,0-4-.95C288.56,159.75,287.05,160.41,286.87,160.05Z" style="fill:#6366F1"></path></g></svg>
